<svg xmlns="http://www.w3.org/2000/svg" width="1377" height="157.093" viewBox="0 0 1377 157.093">
  <g id="Group_106451" data-name="Group 106451" transform="translate(11 -305.454)">
    <g id="Login" transform="translate(-12.5 -592.868)" opacity="0.29">
      <g id="Layer_1" data-name="Layer 1" transform="translate(1.5 898.322)">
        <path id="Path_99304" data-name="Path 99304" d="M233.82,1528.347h2.5c2.58-5.065,5.973-10.844,8.809-15.493,5.01-8.213,9.78-15.361,11.3-17.361l-1.784-1.353c-2.869,3.782-14.75,22-20.826,34.209Z" transform="translate(-185.906 -1371.258)" fill="#7b78a1"/>
        <g id="Group_106149" data-name="Group 106149" transform="translate(248.457 64.189)">
          <path id="Path_99305" data-name="Path 99305" d="M1472.084,1536.06c.153.808-1.7,1.114-2.062.852-1.858-1.334-4.1,1.254-5.962,2.112-11.083,5.129-16.035,2.929-23.008,4.15-2.289.4-5.81,11.2-5.29,18.45h47.3c-1.543-6.4-5.507-14.831-6.7-18a84.811,84.811,0,0,0-4.273-7.565Z" transform="translate(-1388.374 -1468.721)" fill="#d1cef3"/>
          <path id="Path_99306" data-name="Path 99306" d="M1460.194,1420.852a11.478,11.478,0,0,1-2.76,1.318,17.864,17.864,0,0,0-2.564,1.128c-6.849,3.908-15.617,5.81-26.809,5.81h-.025a1.037,1.037,0,1,0,0,2.075h.025c11.562,0,20.667-1.99,27.838-6.082a16.182,16.182,0,0,1,2.271-.99,13.264,13.264,0,0,0,3.267-1.6,1.037,1.037,0,0,0-1.242-1.662Z" transform="translate(-1381.461 -1377.111)" fill="#7b78a1"/>
          <path id="Path_99307" data-name="Path 99307" d="M1488.764,1532.506c-2.557.852-5.135,1.794-7.629,2.7s-5.047,1.844-7.583,2.687c-4.653,1.549-9.928,1.551-14.625,1.547a1.037,1.037,0,0,0,0,2.075h.382c4.735,0,10.056-.041,14.9-1.652,2.566-.854,5.146-1.8,7.639-2.708s5.045-1.842,7.573-2.685a1.038,1.038,0,0,0-.658-1.97Z" transform="translate(-1405.98 -1465.856)" fill="#7b78a1"/>
          <path id="Path_99308" data-name="Path 99308" d="M1422.678,1463.135a1.04,1.04,0,0,0-.423,1.407c2.863,5.317,6.695,13.21,6.915,20.344a1.039,1.039,0,0,0,1.037,1.006h.033a1.04,1.04,0,0,0,1.006-1.07c-.235-7.573-4.2-15.763-7.163-21.263A1.04,1.04,0,0,0,1422.678,1463.135Z" transform="translate(-1377.597 -1410.738)" fill="#7b78a1"/>
          <path id="Path_99309" data-name="Path 99309" d="M1589.518,1438.875c-.7-2.937-1.413-5.973-1.866-9.009-.169-1.141-.285-2.337-.4-3.494a48.61,48.61,0,0,0-.67-5.1,1.039,1.039,0,0,0-2.036.415,47.767,47.767,0,0,1,.639,4.88c.113,1.184.231,2.409.408,3.6.468,3.122,1.2,6.2,1.9,9.18.425,1.794.862,3.648,1.235,5.478a1.038,1.038,0,1,0,2.034-.413c-.377-1.862-.821-3.733-1.248-5.542Z" transform="translate(-1506.502 -1376.952)" fill="#7b78a1"/>
          <path id="Path_99310" data-name="Path 99310" d="M1454.364,1247.508c0-2.5-.006-5.086-1.046-7.4-1.625-3.624-3.615-7.12-5.54-10.5a106.923,106.923,0,0,1-6.175-12.005c-.7-1.7-5.373-7.992-9.05-8.045a3.181,3.181,0,0,0-3.028,2.149c-1.961,4.4.526,9.2,2.931,13.837,1.922,3.708,3.737,7.21,3.054,10.013a1.038,1.038,0,1,0,2.017.491c.866-3.56-1.215-7.575-3.23-11.459-2.18-4.2-4.432-8.551-2.879-12.036.413-.928.873-.924,1.1-.918,2.326.035,6.526,5.214,7.161,6.759a108.416,108.416,0,0,0,6.291,12.242c1.9,3.339,3.865,6.792,5.449,10.324.858,1.91.86,4.166.862,6.552,0,3.18.006,6.472,2.151,9.083a1.038,1.038,0,0,0,1.6-1.316c-1.675-2.038-1.677-4.822-1.679-7.767Z" transform="translate(-1382.905 -1209.554)" fill="#7b78a1"/>
          <path id="Path_99311" data-name="Path 99311" d="M1258.951,1280.007c-2.038.466-4.3,0-6.7-.482a27.79,27.79,0,0,0-4.874-.7,50.047,50.047,0,0,1-25.627-7.522l-.06-.039c-10.869-6.841-13.542-6.206-14.66-4.892a3.684,3.684,0,0,0-.81,2.846c.439,4.451,7.06,10.549,8.808,11.939a201.092,201.092,0,0,0,18.065,12.667,30.164,30.164,0,0,0,7.093,2.929,35,35,0,0,1,5.346,2.007c.542.276,1.161.561,1.815.864,2.918,1.345,6.913,3.188,7.553,5.977a1.038,1.038,0,0,0,1.01.806,1.011,1.011,0,0,0,.233-.027,1.038,1.038,0,0,0,.78-1.244c-.866-3.785-5.4-5.874-8.708-7.4-.635-.293-1.229-.567-1.743-.829a36.925,36.925,0,0,0-5.661-2.135,28.772,28.772,0,0,1-6.614-2.706,199.133,199.133,0,0,1-17.877-12.533c-2.566-2.038-7.726-7.388-8.035-10.518a1.664,1.664,0,0,1,.328-1.3c.012-.016,1.693-1.161,11.97,5.307l.062.039a52.124,52.124,0,0,0,26.69,7.839,25.828,25.828,0,0,1,4.5.658c2.508.51,5.1,1.037,7.575.472a1.037,1.037,0,0,0-.46-2.023Z" transform="translate(-1206.196 -1253.988)" fill="#7b78a1"/>
        </g>
        <g id="Group_106150" data-name="Group 106150" transform="translate(256.273 25.719)">
          <path id="Path_99312" data-name="Path 99312" d="M1352.728,1075.98c.291.322.142-.528-.105-1.53A1.305,1.305,0,0,0,1352.728,1075.98Z" transform="translate(-1330.085 -1063.845)" fill="#6ad7e7"/>
          <path id="Path_99313" data-name="Path 99313" d="M1270.181,1029.743c-.777.856-2.9,2.481-3.551,3.89.247,1,.4,1.852.105,1.53a1.3,1.3,0,0,1-.105-1.53c-.243-.982-.58-2.112-.689-2.436-.854-2.446-5.181-7.416-7.893-7.922-5.981-1.112-10.467,1.555-12.593,7.183-5.271,13.954,5.948,27.713,13.224,38.311a73.79,73.79,0,0,0,7.557,9.081c.439.46,1.759,3.2,2.3,3.263a24.592,24.592,0,0,0,1.485-2.677c1.392-3.263,3.316-6.239,4.865-9.446,4.5-9.32,10.019-18.2,12.226-28.5.848-3.947,2.192-8.751-.472-12.288-4.183-5.562-12.416-2.9-16.46,1.543Z" transform="translate(-1244.092 -1023.028)" fill="#d1cef3"/>
        </g>
        <g id="Group_106152" data-name="Group 106152" transform="translate(0 15.777)">
          <g id="Group_106151" data-name="Group 106151">
            <path id="Path_99314" data-name="Path 99314" d="M12.938,1262.578A50.736,50.736,0,0,1,1.8,1263.933a.992.992,0,0,0-.3.056v1.966a1.018,1.018,0,0,0,.318.056h.016a53.025,53.025,0,0,0,11.636-1.425,1.038,1.038,0,0,0-.536-2Z" transform="translate(-1.5 -1203.204)" fill="#7b78a1"/>
            <path id="Path_99315" data-name="Path 99315" d="M11.142,1147.678a79.825,79.825,0,0,1-9.642.693v2.073c3.518-.118,9.112-.38,10.329-.806a1.037,1.037,0,1,0-.687-1.957Z" transform="translate(-1.5 -1111.982)" fill="#7b78a1"/>
            <path id="Path_99316" data-name="Path 99316" d="M126.159,1096.7c-1.3.132-2.648.27-3.937.278-1.945,0-4.682-.571-4.735-1.691a1.038,1.038,0,0,0-2.073.1c.173,3.533,5.925,3.665,6.779,3.665h.043c1.39-.008,2.786-.151,4.135-.289,4.051-.415,7.546-.771,10.135,2.24a2.4,2.4,0,0,1,.747,1.891c-.2,1.336-2.1,2.535-3.118,3.178-.868.549-1.392.879-1.357,1.613.033.6.429.905,1.217,1.518,1.178.916,3.368,2.617,3.075,4.4-.124.782-.4,1.324-.707,1.409l-.2.052c-2.163.534-3.356.827-3.141,2.021.136.687.7,1.108,1.411,1.64,1.079.806,2.421,1.807,2.411,3.706,0,.633-.53,1.229-1.652,1.869-.1.031-.324.08-.466.113-.526.118-1.617.361-1.411,1.4a3.323,3.323,0,0,0,1.431,1.877c.914.732,1.136,1.021.959,1.652-1.027,3.671-6.119,4.64-9.84,5.35l-.58.111c-6.538,1.262-13.391-1.048-20.018-3.283-4.729-1.594-9.619-3.244-14.4-3.6a1.037,1.037,0,0,0-.155,2.069c4.521.34,9.075,1.877,13.894,3.5,5.49,1.852,11.129,3.754,16.774,3.754a22.47,22.47,0,0,0,4.3-.4l.575-.109c4.013-.765,10.077-1.92,11.448-6.829a3.392,3.392,0,0,0-1.565-3.756.179.179,0,0,0,.027-.014c.679-.382,2.743-1.549,2.753-3.692a6.307,6.307,0,0,0-2.976-5.179c.206-.054.443-.113.718-.182.124-.031.214-.053.258-.066,1.159-.32,1.943-1.417,2.2-3.079.474-2.877-2.126-5.02-3.675-6.229,1.4-.891,3.537-2.328,3.863-4.5a4.376,4.376,0,0,0-1.225-3.552c-3.294-3.834-7.678-3.386-11.919-2.951Z" transform="translate(-71.547 -1069.655)" fill="#7b78a1"/>
            <path id="Path_99317" data-name="Path 99317" d="M109.418,991.664c.621-3.836,1.264-7.8-.877-11.461l-.272-.472c-1.242-2.159-3.554-6.179-7.414-4.519-3.378,1.45-2.192,5.294-1.407,7.839a13.142,13.142,0,0,1,.617,2.491,20.131,20.131,0,0,1-3.556,12.051c-2.586,3.966-6.829,7.334-10.572,10.306l-.3.239a15.752,15.752,0,0,1-4.828,1.848,1.038,1.038,0,0,0,.074,2.073c.025,0,.052,0,.078,0a16.682,16.682,0,0,0,5.96-2.287l.307-.243c3.867-3.069,8.25-6.548,11.019-10.8a22.206,22.206,0,0,0,3.888-13.323,14.074,14.074,0,0,0-.7-2.966c-.982-3.186-1.182-4.711.241-5.321,2-.858,3.356,1.143,4.8,3.646l.28.487c1.763,3.013,1.207,6.447.619,10.081a38.356,38.356,0,0,0-.563,4.661,12.844,12.844,0,0,0,.582,3.929c.118.45.237.907.338,1.384a1.038,1.038,0,1,0,2.031-.427c-.107-.511-.235-1-.363-1.487a11.039,11.039,0,0,1-.516-3.325,36.563,36.563,0,0,1,.538-4.407Z" transform="translate(-63.688 -974.82)" fill="#7b78a1"/>
          </g>
          <path id="Path_99318" data-name="Path 99318" d="M63.084,1233.151c-.012-.07-.006-.231-.066-.175a6.81,6.81,0,0,1-5.115,1.557,8.984,8.984,0,0,1-2.489-.728c-.177,1.586.289,3.226.237,4.824-.021.652-.144,2.335.415,2.762.736.563,5.319-.153,6.27-.309.769-.128,1.353-.114,1.635-.361.309-.27-.021-2.623-.316-4.17S63.21,1234.087,63.084,1233.151Z" transform="translate(-44.263 -1179.724)" fill="#d1cef3"/>
          <path id="Path_99319" data-name="Path 99319" d="M55.839,1136.651c-.881-.1-6.414.291-6.8.988-.316.553-.033,2.545.039,3.3.138,1.343.21,1.639.584,3.7.006.039.19.833.217.844.138.047,2-.813,2.265-.856a14.2,14.2,0,0,1,4.694.13c.283.023.2-1.6.157-1.9-.132-.988-.045-6.086-1.155-6.21Z" transform="translate(-39.117 -1103.263)" fill="#d1cef3"/>
          <path id="Path_99320" data-name="Path 99320" d="M37.572,1176.042c-2.757,2.221-4.18,6.193-1.143,10.063a6.2,6.2,0,0,0,5.02,2.452,7.676,7.676,0,0,0,1.136-.087,9.5,9.5,0,0,0,7.21-5.676,6.1,6.1,0,0,0-1.06-6.284c-2.935-3.556-7.982-3.03-11.166-.468Zm10.285,6.012a7.443,7.443,0,0,1-5.581,4.364,4.283,4.283,0,0,1-4.213-1.592h0a4.777,4.777,0,0,1,.811-7.165,7.157,7.157,0,0,1,4.381-1.6,4.889,4.889,0,0,1,3.884,1.776,4.048,4.048,0,0,1,.722,4.22Z" transform="translate(-27.873 -1132.907)" fill="#7b78a1"/>
          <path id="Path_99321" data-name="Path 99321" d="M61.038,1200.944h-.016c-.184-.012-.841-.194-1.324-.324-2.062-.565-2.9-.738-3.531-.305a7.328,7.328,0,0,0-1.813,2.246,8.7,8.7,0,0,1-.934,1.34,1.036,1.036,0,0,0,.021,1.466,1.025,1.025,0,0,0,.724.293,1.04,1.04,0,0,0,.745-.313,10.041,10.041,0,0,0,1.213-1.7,8.489,8.489,0,0,1,1.064-1.5,18.6,18.6,0,0,1,1.965.466,7.888,7.888,0,0,0,1.877.4,1.051,1.051,0,0,0,1.035-1.054,1.025,1.025,0,0,0-1.023-1.021Z" transform="translate(-42.478 -1153.616)" fill="#7b78a1"/>
        </g>
        <path id="Path_99322" data-name="Path 99322" d="M880.637,997c-1.7-2.471,3.224-23.076-6.934-19.29-4.486,1.673-13.6,12.391-16.526,12.57-3.3.2-16.823-1.635-18.3,1.6-2.159,4.731,1.452,9.856,4.517,13.191,1.083,1.18,4.215,3.574,4.444,4.372.342,1.2-1.169,4.24-1.549,5.494-1.32,4.356-3.44,8.412-4.964,12.614-.545,1.485-2.318,5.158-.2,6.008,6.567,2.63,16.664-8.922,20.756-7.053,1.786.815,13.952,14.336,15.831,12.4,3.663-3.764.965-16.514,3.23-19.506,1.734-2.291,13.657-8.681,13.065-11.634C893.164,1003.508,882.514,999.73,880.637,997Z" transform="translate(-665.656 -960.967)" fill="#d1cef3"/>
        <g id="Group_106154" data-name="Group 106154" transform="translate(180.252 58.61)">
          <path id="Path_99323" data-name="Path 99323" d="M1038.137,1255.888a61.847,61.847,0,0,0,.619-11.411,88.761,88.761,0,0,0-1.578-10.613c-.681-3.562-1.58-7.156-3.523-9.328a1.038,1.038,0,0,0-1.547,1.386c1.827,2.042,2.64,6.29,3.032,8.336a87.042,87.042,0,0,1,1.547,10.368,60.32,60.32,0,0,1-.61,11.026,61.947,61.947,0,0,0-.619,11.475c.27,3.908,8.885,33.937,12.841,46.951h2.147c-3.892-12.694-12.682-43.671-12.919-47.095a60.607,60.607,0,0,1,.608-11.092Z" transform="translate(-999.597 -1215.593)" fill="#7b78a1"/>
          <path id="Path_99324" data-name="Path 99324" d="M1009.805,1265.313l-.175-.66c-.285-1.066-.716-2.679-1.112-4.684a1.037,1.037,0,1,0-2.036.4c.41,2.073.85,3.725,1.143,4.818l.171.643c.074.293.167.6.26.918a7.093,7.093,0,0,1,.466,3.052.362.362,0,0,1-.371.289c-.132.012-.584-.023-.8-.732a1.038,1.038,0,1,0-1.984.61,2.924,2.924,0,0,0,2.762,2.2c.045,0,.091,0,.136,0a2.421,2.421,0,0,0,2.3-1.968,8.558,8.558,0,0,0-.516-4.038c-.087-.293-.171-.575-.241-.848Z" transform="translate(-978.543 -1243.329)" fill="#7b78a1"/>
          <path id="Path_99325" data-name="Path 99325" d="M888.3,1364.61c-2.343-3.948-4.764-8.031-6.9-12.529-1.922-4.061-5.2-15.421-3.335-17.277.386-.386,1.316-.021,1.836.231a1.038,1.038,0,1,0,.9-1.87c-2.242-1.081-3.523-.505-4.2.167-3.671,3.646,2.85,19.483,2.922,19.638,2.176,4.587,4.622,8.712,6.99,12.7,3.279,5.527,6.377,10.747,8.763,17.031a154.317,154.317,0,0,1,5.053,17.394h2.13a158.731,158.731,0,0,0-5.245-18.131,110.686,110.686,0,0,0-8.918-17.353Z" transform="translate(-875.489 -1301.614)" fill="#7b78a1"/>
          <path id="Path_99326" data-name="Path 99326" d="M900.97,1292.285c-1.015-3.469-1.627-5.562-4.315-8.349a3.539,3.539,0,0,0-3.931-.608,5.059,5.059,0,0,0-3.145,4.7c-.023,2.869,1.326,7.225,2.753,11.838.382,1.233.765,2.475,1.124,3.692a1.039,1.039,0,0,0,1.992-.588c-.361-1.225-.747-2.477-1.132-3.719-1.318-4.259-2.679-8.662-2.661-11.207a2.948,2.948,0,0,1,1.838-2.793,1.585,1.585,0,0,1,1.671.12c2.335,2.419,2.83,4.115,3.818,7.491.38,1.3.81,2.774,1.435,4.612a1.037,1.037,0,0,0,1.963-.668c-.61-1.792-1.035-3.244-1.409-4.525Z" transform="translate(-886.673 -1262.277)" fill="#7b78a1"/>
          <path id="Path_99327" data-name="Path 99327" d="M934.28,1267.068a40.25,40.25,0,0,0-3.079-8.109c-1.132-2.056-2.733-3.075-4.4-2.809-1.844.3-3.285,2.137-3.766,4.791-.268,1.489.037,3.376,2.564,10.621a1.038,1.038,0,0,0,1.959-.685c-2.331-6.686-2.669-8.52-2.481-9.568.359-1.976,1.293-2.986,2.06-3.112.751-.12,1.563.522,2.248,1.761a38.057,38.057,0,0,1,2.908,7.7,53.346,53.346,0,0,0,2.064,6.026,1.038,1.038,0,0,0,.953.625,1.008,1.008,0,0,0,.412-.087,1.04,1.04,0,0,0,.54-1.365,51.574,51.574,0,0,1-1.98-5.793Z" transform="translate(-913.165 -1240.928)" fill="#7b78a1"/>
          <g id="Group_106153" data-name="Group 106153" transform="translate(14.379)">
            <path id="Path_99329" data-name="Path 99329" d="M957.953,1201.9c-1.648-6.979-3.7-15.662-7.031-18.463a2.874,2.874,0,0,0-3.269-.681c-1.974.965-2.5,4.416-2.44,5.934.223,6.127,2.46,13.191,4.539,19.329a1.038,1.038,0,0,0,1.965-.666c-2.031-6-4.218-12.892-4.43-18.741-.054-1.458.536-3.632,1.279-3.995.295-.142.767.192,1.023.406,2.8,2.357,4.851,11.021,6.344,17.349.666,2.823,1.242,5.263,1.811,6.94a1.038,1.038,0,0,0,1.965-.666c-.536-1.584-1.1-3.978-1.755-6.75Z" transform="translate(-945.21 -1182.503)" fill="#7b78a1"/>
          </g>
        </g>
        <g id="Group_106156" data-name="Group 106156" transform="translate(428.836 11.871)">
          <path id="Path_99330" data-name="Path 99330" d="M2172.354,989.732c-1.252-.13-2.545-.225-3.912-.324-6.212-.454-13.255-.969-17.491-5.212a12.415,12.415,0,0,1-2.518-4.739,15.386,15.386,0,0,0-2.487-4.9c-1.178-1.382-2.432-2.6-3.648-3.774a30.387,30.387,0,0,1-5.315-6.162,17.977,17.977,0,0,1-.969-2.683c-.978-3.114-1.9-6.055-3.826-6.055h-.06a5.938,5.938,0,0,0-4.383,1.937c-2.31,2.539-2.409,6.794-2.262,9.1.155,2.485,1.7,5.212,3.186,7.847,2.025,3.584,3.939,6.969,2.456,9.3a1.038,1.038,0,1,0,1.751,1.116c2.151-3.384-.163-7.478-2.4-11.436-1.375-2.432-2.8-4.948-2.92-6.957-.1-1.6-.136-5.531,1.726-7.577a3.872,3.872,0,0,1,2.828-1.256c.619.439,1.5,3.238,1.924,4.6a17.2,17.2,0,0,0,1.169,3.131,32.413,32.413,0,0,0,5.651,6.585c1.18,1.143,2.4,2.322,3.51,3.63a13.66,13.66,0,0,1,2.118,4.267,14.144,14.144,0,0,0,3,5.5c4.781,4.787,12.232,5.333,18.807,5.814,1.351.1,2.63.192,3.851.32,1.667.173,3.382.4,5.043.615,2.512.328,5.1.666,7.664.85v-2.081c-2.46-.181-4.962-.507-7.4-.827-1.673-.219-3.405-.445-5.1-.621Z" transform="translate(-2116.232 -955.88)" fill="#7b78a1"/>
          <path id="Path_99331" data-name="Path 99331" d="M2109.521,1095.131l-.349-.116c-1.188-.4-8.472-.6-9.357-.575-4.135.06-7.551,1.293-9.135,3.3a4.792,4.792,0,0,0-.9,4.137c.726,3.265,5.168,3.729,7.064,3.925,4.935.514,9.953.916,14.806,1.305l1.186.095c.386.031.926.074,1.543.074,1.957,0,4.69-.437,5.771-3.087a3.44,3.44,0,0,0-.076-2.809c-1.343-2.9-6.346-4.863-10.555-6.247Zm8.709,8.272c-.588,1.439-2.194,1.974-5.226,1.728l-1.186-.095c-4.841-.388-9.846-.79-14.759-1.3-1.452-.151-4.851-.505-5.253-2.31a2.707,2.707,0,0,1,.5-2.4c1.167-1.475,4.125-2.46,7.536-2.51h.179a84.884,84.884,0,0,1,8.495.472l.355.118c5.43,1.784,8.565,3.514,9.32,5.146a1.367,1.367,0,0,1,.037,1.155Z" transform="translate(-2087.825 -1065.861)" fill="#7b78a1"/>
          <path id="Path_99332" data-name="Path 99332" d="M2108.64,1140.17a14.116,14.116,0,0,0-6.618-1.6,1.037,1.037,0,0,0,.159,2.069c2.788-.208,8.616,2.184,9.625,5.02a2.667,2.667,0,0,1-.217,2.7c-.864,1.1-2.989,1.716-5.166,1.487-3.3-.342-6.6-.806-9.794-1.252q-1.717-.241-3.442-.476c-.937-.128-1.9-.163-2.823-.2a12.43,12.43,0,0,1-5.5-1.027,3.937,3.937,0,0,1-1.875-4.457,4.1,4.1,0,0,1,3.56-3.442,1.037,1.037,0,0,0-.159-2.069,6.164,6.164,0,0,0-5.434,5.084,5.991,5.991,0,0,0,2.931,6.715,14.183,14.183,0,0,0,6.4,1.27c.92.035,1.788.068,2.624.182q1.723.235,3.434.476c3.209.45,6.53.916,9.869,1.262a10.651,10.651,0,0,0,1.083.056c2.085,0,4.57-.592,5.929-2.324a4.644,4.644,0,0,0,.541-4.682c-.862-2.419-3.578-4.042-5.121-4.793Z" transform="translate(-2080.799 -1099.586)" fill="#7b78a1"/>
          <path id="Path_99333" data-name="Path 99333" d="M2110.822,1191.514c-.445-.2-.922-.4-1.439-.65a1.037,1.037,0,1,0-.889,1.875c.538.256,1.033.472,1.5.676a9.557,9.557,0,0,1,3.84,2.473,1.627,1.627,0,0,1,.2,1.953,4.781,4.781,0,0,1-3.366,2.667c-9.984.027-13.028-.5-16.547-1.3a5.8,5.8,0,0,1-3.739-3.187,4.713,4.713,0,0,1,.445-3.844,2.243,2.243,0,0,1,1.755-1.112,1.037,1.037,0,0,0-.159-2.069,4.331,4.331,0,0,0-3.339,2.05,6.757,6.757,0,0,0-.66,5.672,7.778,7.778,0,0,0,5.23,4.513c3.562.815,6.651,1.353,16.2,1.353h.813c1.92-.006,4.327-1.794,5.259-3.906a3.744,3.744,0,0,0-.559-4.185,11.631,11.631,0,0,0-4.546-2.98Z" transform="translate(-2086.575 -1140.917)" fill="#7b78a1"/>
          <path id="Path_99334" data-name="Path 99334" d="M2104.148,1237.961a1.038,1.038,0,0,0-.1,2.073,7.579,7.579,0,0,1,5.888,2.6,1.033,1.033,0,0,1,.355,1.042c-.248.9-1.679,1.84-2.865,2.2-3.82,1.159-9.506-.049-13.447-1.763-2.211-.963-3.351-2.906-3.141-4.156.2-1.213,1.681-1.505,2.543-1.572a1.037,1.037,0,0,0-.159-2.068c-3.543.272-4.28,2.394-4.432,3.3-.4,2.392,1.47,5.146,4.36,6.4a28.714,28.714,0,0,0,10.77,2.4,14.218,14.218,0,0,0,4.108-.551c1.714-.52,3.778-1.879,4.261-3.632a3.062,3.062,0,0,0-.819-2.989,9.682,9.682,0,0,0-7.323-3.281Z" transform="translate(-2087.098 -1178.479)" fill="#7b78a1"/>
          <g id="Group_106155" data-name="Group 106155" transform="translate(20.573 64.822)">
            <path id="Path_99335" data-name="Path 99335" d="M2202.765,1271.245c-2.58.274-5.016.532-7.433.718-.573.043-1.51.144-2.7.27-2.83.3-9.436,1.009-10.537.637a1.038,1.038,0,0,0-1.066,1.78,4.86,4.86,0,0,0,2.45.392c1.782,0,4.665-.241,9.376-.745,1.122-.12,2.089-.223,2.632-.266,2.448-.188,5.014-.46,7.495-.724,8.65-.918,17.59-1.869,25.611.138v-2.132C2220.357,1269.376,2211.418,1270.325,2202.765,1271.245Z" transform="translate(-2180.553 -1270.184)" fill="#7b78a1"/>
            <path id="Path_99336" data-name="Path 99336" d="M2188.28,1283.34Z" transform="translate(-2186.687 -1280.627)" fill="#7b78a1"/>
          </g>
          <path id="Path_99337" data-name="Path 99337" d="M2321.555,1101.327a2.811,2.811,0,0,0-2.677-.526,3.325,3.325,0,0,0-2.31,2.774,4.078,4.078,0,0,1-.417,1.132,1.038,1.038,0,1,0,1.751,1.116,5.763,5.763,0,0,0,.672-1.716c.229-.864.328-1.145.908-1.32a.755.755,0,0,1,.773.157c1.3,1.042,1.91,4.847,1.811,6.107a132.658,132.658,0,0,0-.132,13.88,119.272,119.272,0,0,1-.254,15.144l-.027.26c-.163,1.536-.332,3.127-.6,4.651a2.477,2.477,0,0,1-1.347,2.05c-.633.186-1.258-.367-1.572-.709-1.254-1.384-1.46-4.222-1.608-6.294l-.023-.3a1.038,1.038,0,1,0-2.07.153l.022.3c.171,2.374.408,5.624,2.143,7.538a3.912,3.912,0,0,0,2.85,1.427,3,3,0,0,0,.829-.118,4.37,4.37,0,0,0,2.817-3.675c.287-1.6.46-3.228.627-4.8l.029-.262a120.692,120.692,0,0,0,.264-15.412,130.62,130.62,0,0,1,.126-13.661c.118-1.506-.495-6.212-2.58-7.889Z" transform="translate(-2266.244 -1070.805)" fill="#7b78a1"/>
          <path id="Path_99338" data-name="Path 99338" d="M2341.374,1147.3a1.242,1.242,0,0,0-.377.268,2.734,2.734,0,0,0-2.825.522,1.963,1.963,0,0,0-.569,1.543,4.433,4.433,0,0,0,1.728,2.778,2.2,2.2,0,0,0,1.374.4c.095,0,.186,0,.266,0s.175-.006.256,0c1.856.1,2.6-.685,2.892-1.351.585-1.33-.334-2.955-1.052-3.669a1.461,1.461,0,0,0-1.691-.481Zm-.722,1.374h0Zm1.573,1.928a1.488,1.488,0,0,1-.9.126c-.134,0-.274,0-.419,0a3.452,3.452,0,0,1-.363,0,2.724,2.724,0,0,1-.868-1.2c.171-.118.5-.047,1.029.122a1.926,1.926,0,0,0,1.264.1,1.41,1.41,0,0,1,.258.856Zm.493-2.052h0l-1.035.062,1.035-.062Z" transform="translate(-2284.635 -1107.736)" fill="#7b78a1"/>
          <path id="Path_99339" data-name="Path 99339" d="M2342.618,1204.376c-.012,0-.025.01-.04.016a2.188,2.188,0,0,0-1.969.474,3.144,3.144,0,0,0-.67,3.071,2.91,2.91,0,0,0,2.025,2.143,3.089,3.089,0,0,0,.763.093,3.465,3.465,0,0,0,2.976-1.737,2.739,2.739,0,0,0-.495-3.393,3.031,3.031,0,0,0-2.593-.668Zm1.281,3.038a1.381,1.381,0,0,1-1.429.652.924.924,0,0,1-.53-.683,1.283,1.283,0,0,1,.07-.963h0a3.156,3.156,0,0,1,1.017.268,1.028,1.028,0,0,0,.854-.008.635.635,0,0,1,.014.736Z" transform="translate(-2286.386 -1153.057)" fill="#7b78a1"/>
          <path id="Path_99340" data-name="Path 99340" d="M2345.123,1258.607a2.481,2.481,0,0,0-2.727-.068h0c-.155.095-2.293,1.442-2.277,3.164a2.34,2.34,0,0,0,1.443,2.071,3.783,3.783,0,0,0,1.815.571,2.627,2.627,0,0,0,.771-.118,3.053,3.053,0,0,0,2.25-2.481,3.293,3.293,0,0,0-1.276-3.139Zm-2.209.833h0Zm1.433,1.986a1,1,0,0,1-.8.817c-.243.074-.464-.01-1-.3a.962.962,0,0,1-.349-.26c-.012-.256.637-.957,1.244-1.351.26-.142.4-.093.505-.019A1.22,1.22,0,0,1,2344.347,1261.427Z" transform="translate(-2286.637 -1195.822)" fill="#7b78a1"/>
          <path id="Path_99341" data-name="Path 99341" d="M2313.366,1291.057a1.012,1.012,0,0,0-.153-.184c-.8-.771-2.788-.138-3.568.656a1.854,1.854,0,0,0,.114,2.753c.078.076.155.173.237.272a3.037,3.037,0,0,0,1.545,1.157,1.773,1.773,0,0,0,.415.05,2.241,2.241,0,0,0,1.46-.608,3.7,3.7,0,0,0,1.355-2.547,1.712,1.712,0,0,0-1.4-1.551Zm-.926.78h0Zm-.757-.716Zm.293,2.528a3.893,3.893,0,0,1-.384-.421c-.109-.13-.215-.256-.316-.361a2.4,2.4,0,0,1,.452-.19,1.549,1.549,0,0,0,.808.32.026.026,0,0,1,.012,0A2.288,2.288,0,0,1,2311.976,1293.65Z" transform="translate(-2262.006 -1221.507)" fill="#7b78a1"/>
        </g>
        <g id="Group_106158" data-name="Group 106158" transform="translate(68.925)">
          <path id="Path_99342" data-name="Path 99342" d="M396.411,1561.743a1.037,1.037,0,0,0-1.417.377c-2.234,3.855-4.222,7.538-5.911,10.953-.811,1.646-2.438,5.632-3.883,8.823h2.275c1.332-3,2.739-6.42,3.471-7.9,1.668-3.372,3.634-7.016,5.845-10.832a1.036,1.036,0,0,0-.377-1.417Z" transform="translate(-374.991 -1424.808)" fill="#7b78a1"/>
          <path id="Path_99343" data-name="Path 99343" d="M466.012,1314.961c-2.784-2.291-7.192-.615-10.733.732-.984.375-1.914.728-2.609.907a58.06,58.06,0,0,1-9.788,1.4c-1.885.161-3.832.328-5.783.6-8.382,1.186-14.922,2.912-20.585,5.432-3.347,1.491-7.883,3.931-10.481,7.086-.058.068-.167.182-.307.328-1.4,1.462-2.143,2.43-2.087,3.345a1.385,1.385,0,0,0,.505,1,1.037,1.037,0,0,0,1.627-1.171,10.852,10.852,0,0,1,1.454-1.739c.184-.192.328-.347.4-.439,2.345-2.846,6.583-5.113,9.726-6.511,5.482-2.44,11.846-4.116,20.032-5.274,1.893-.268,3.813-.433,5.67-.592a60.435,60.435,0,0,0,10.13-1.458,29.369,29.369,0,0,0,2.828-.978c2.879-1.1,6.825-2.594,8.677-1.07.45.371.443.615.441.708-.029,1.013-2.089,2.522-3.195,3.333-.386.283-.718.526-.976.743a31.968,31.968,0,0,1-12.7,5.872c-1.072.188-5.35,1.219-6.67,2.823a1.037,1.037,0,1,0,1.6,1.318c.662-.8,3.7-1.8,5.426-2.1a33.881,33.881,0,0,0,13.672-6.323c.221-.184.524-.406.87-.66,1.683-1.233,3.987-2.923,4.042-4.95a2.906,2.906,0,0,0-1.2-2.368Z" transform="translate(-389.625 -1228.135)" fill="#7b78a1"/>
          <path id="Path_99344" data-name="Path 99344" d="M545.2,1301.346a5.633,5.633,0,0,0-4.824-.031,29.14,29.14,0,0,0-10.865,8.3,21.437,21.437,0,0,1-13.259,7.338,23.144,23.144,0,0,1-2.821.033,17.721,17.721,0,0,0-4.337.237,1.037,1.037,0,1,0,.456,2.023,15.833,15.833,0,0,1,3.826-.186,24.734,24.734,0,0,0,3.079-.043,23.333,23.333,0,0,0,14.66-8.085,27.151,27.151,0,0,1,10.106-7.72,3.583,3.583,0,0,1,3-.033,2.043,2.043,0,0,1,1.06,1.536c.214,1.229-.239,3.663-3.615,8.272-4.257,5.8-9.512,9.394-16.091,13-6.794,3.729-14.928,4.2-22.794,4.657a107.86,107.86,0,0,0-12.249,1.178c-.118.021-11.673,2.518-11.851,6.558a1.039,1.039,0,0,0,.992,1.083h.045a1.035,1.035,0,0,0,1.035-.992c.039-.916,4.861-3.684,10.135-4.605a106.743,106.743,0,0,1,12.011-1.149c8.095-.47,16.468-.957,23.672-4.911,6.822-3.741,12.284-7.487,16.765-13.6,3.1-4.23,4.405-7.456,3.987-9.856A4.074,4.074,0,0,0,545.2,1301.346Z" transform="translate(-449.196 -1217.784)" fill="#7b78a1"/>
          <g id="Group_106157" data-name="Group 106157" transform="translate(0 104.169)">
            <path id="Path_99345" data-name="Path 99345" d="M341.252,1478.06a15.7,15.7,0,0,0-1.668,1.7,2.152,2.152,0,0,0-.184.631Z" transform="translate(-338.637 -1462.664)" fill="#6ad7e7"/>
            <path id="Path_99346" data-name="Path 99346" d="M350.312,1403.419c-1.965-.45-12.172,13.478-13.663,17.085a15.88,15.88,0,0,1,1.668-1.7l-1.852,2.333a2.088,2.088,0,0,1,.184-.631,3.2,3.2,0,0,0-.926,2.343c.65,3.694,16.776,15.9,20.014,15.334,5.226-.918,7.051-7.59,9.809-11.527,1.32-1.877,3.888-5.319,4-7.68.052-1.293-1.891-2.955-2.6-3.867-4.543-5.81-9.114-9.97-16.631-11.69Z" transform="translate(-335.699 -1403.408)" fill="#a4a0c7"/>
          </g>
          <path id="Path_99347" data-name="Path 99347" d="M595.412,1080.031c-4.193,1.06-7.3,4.671-8.111,9.425l-.023.126c-.318,1.838-.709,4.125.142,6.033a1.038,1.038,0,0,0,1.9-.848c-.6-1.332-.262-3.273.008-4.834l.023-.128c.67-3.933,3.189-6.907,6.575-7.763,3.2-.812,6.4.464,8.769,3.492,5,6.387,2.7,15.14.858,22.171-.384,1.466-.7,2.962-1.011,4.409-.179.839-.357,1.675-.547,2.5a8.686,8.686,0,0,0-.074,2.995c.016.087.058.256.1.439.014.058.029.12.043.177a1.039,1.039,0,0,0,.087.524,1.069,1.069,0,0,0,1,.7,1.05,1.05,0,0,0,.342-.056c.92-.318.7-1.2.547-1.842-.033-.134-.064-.258-.074-.309a6.705,6.705,0,0,1,.054-2.168c.192-.835.371-1.683.553-2.532.3-1.423.617-2.9.988-4.315,1.858-7.08,4.4-16.778-1.229-23.978-2.856-3.65-6.936-5.232-10.912-4.224Z" transform="translate(-535.097 -1042.319)" fill="#7b78a1"/>
          <path id="Path_99348" data-name="Path 99348" d="M545.055,1166.441a34.156,34.156,0,0,1-4.657-.666,33.265,33.265,0,0,0-5.843-.747c-.551,0-1.122,0-1.71,0-5.839-.008-13.045,0-16.741-4.409-2.708-3.236-3.964-9.984-1.52-13.841a8.8,8.8,0,0,1,6.078-3.661,8.64,8.64,0,0,1,6.876,1.584,1.037,1.037,0,0,0,1.318-1.6,10.69,10.69,0,0,0-8.526-2.03,10.894,10.894,0,0,0-7.5,4.6c-3.034,4.787-1.547,12.424,1.683,16.281,4.317,5.158,12.08,5.137,18.333,5.154q.875,0,1.693,0a32.036,32.036,0,0,1,5.474.712,36.008,36.008,0,0,0,4.948.7h.047a1.038,1.038,0,0,0,.045-2.075Z" transform="translate(-474.987 -1090.872)" fill="#7b78a1"/>
          <path id="Path_99349" data-name="Path 99349" d="M670.692,964.508c-3.679,2.1-6.49,7.827-4.6,12.073a1.037,1.037,0,0,0,1.9-.844c-1.4-3.137.885-7.8,3.731-9.425,1.864-1.058,3.483-.644,4.816,1.235,1.755,2.477.2,5.748-1.3,8.91a24.052,24.052,0,0,0-1.611,3.95,28.932,28.932,0,0,0-1.11,6.521,1.039,1.039,0,0,0,.992,1.083h.045a1.036,1.036,0,0,0,1.035-.992,27.093,27.093,0,0,1,1.044-6.086,22.549,22.549,0,0,1,1.479-3.587c1.59-3.356,3.57-7.53,1.114-11-1.937-2.735-4.754-3.424-7.536-1.838Z" transform="translate(-597.47 -950.193)" fill="#7b78a1"/>
          <path id="Path_99350" data-name="Path 99350" d="M639.025,1000.341c-4.414-.2-10.671-2.99-13.5-7.317a7.541,7.541,0,0,1-.893-7.148c.553-1.435,2.735-2.739,4.669-2.786h.113a2.326,2.326,0,0,1,2.347,1.357,1.038,1.038,0,0,0,1.9-.841,4.433,4.433,0,0,0-4.409-2.59c-2.766.07-5.707,1.916-6.554,4.117a9.627,9.627,0,0,0,1.093,9.029c3.318,5.069,10.281,8.035,15.148,8.256h.047a1.038,1.038,0,0,0,.047-2.075Z" transform="translate(-562.976 -963.958)" fill="#7b78a1"/>
          <path id="Path_99351" data-name="Path 99351" d="M552.107,898.93c-2.073,1.291-3.547,4.632-2.419,7.173a1.038,1.038,0,0,0,1.9-.841c-.666-1.5.334-3.766,1.619-4.568a1.544,1.544,0,0,1,2.229.5c1.433,1.716.177,5.562-.656,8.105-.153.462-.291.889-.4,1.264a7.957,7.957,0,0,0-.283,4.036c.019.08.052.2.093.338l.006.019a1.04,1.04,0,0,0,.309,1.161,1.2,1.2,0,0,0,.773.3,1.088,1.088,0,0,0,.6-.179c.724-.478.481-1.3.305-1.891-.025-.08-.045-.151-.056-.2a5.938,5.938,0,0,1,.243-2.993c.107-.361.241-.769.386-1.213.973-2.98,2.446-7.482.274-10.083a3.577,3.577,0,0,0-4.919-.926Z" transform="translate(-505.245 -898.322)" fill="#7b78a1"/>
          <path id="Path_99352" data-name="Path 99352" d="M520.232,928.591a17.987,17.987,0,0,0-4.989-.833c-3.131-.233-6.086-.454-7.662-2.964a4.535,4.535,0,0,1-.1-4.915,4.656,4.656,0,0,1,3.952-2.409,3.393,3.393,0,0,1,2.834,2.331,1.037,1.037,0,0,0,1.9-.844,5.4,5.4,0,0,0-4.612-3.558,6.68,6.68,0,0,0-5.855,3.426,6.6,6.6,0,0,0,.132,7.074c2.135,3.4,5.923,3.681,9.264,3.931a16.4,16.4,0,0,1,4.4.7,1.021,1.021,0,0,0,.371.07,1.038,1.038,0,0,0,.373-2.007Z" transform="translate(-469.87 -911.872)" fill="#7b78a1"/>
          <path id="Path_99353" data-name="Path 99353" d="M486.414,1000.11a5.287,5.287,0,0,0-6.979-.031c-2.714,2.067-4.719,6.66-3.254,9.947a1.037,1.037,0,0,0,1.9-.844c-.934-2.1.338-5.719,2.615-7.452a3.287,3.287,0,0,1,4.405-.019c2.227,1.831,1.11,6.439.293,9.8-.264,1.087-.513,2.114-.629,2.949a21.168,21.168,0,0,0,0,3.826c.182,2.809.227,2.84.656,3.139l.592-.852.019-.037,1-.159a33.818,33.818,0,0,1-.212-5.626c.1-.736.34-1.714.592-2.749C488.351,1008.108,489.646,1002.771,486.414,1000.11Z" transform="translate(-446.816 -978.061)" fill="#7b78a1"/>
          <path id="Path_99354" data-name="Path 99354" d="M436.814,1040.068c-3.452-.3-6.711-.58-9.176-3.731a3.967,3.967,0,0,1-.2-5.047c.92-1.163,2.77-2.007,5.2-.883a7.4,7.4,0,0,1,3.265,2.78,1.038,1.038,0,1,0,1.893-.85,9.278,9.278,0,0,0-4.286-3.813c-2.9-1.341-5.919-.761-7.695,1.479a6.075,6.075,0,0,0,.2,7.614c3.019,3.863,6.891,4.2,10.632,4.521,2.945.254,5.729.495,8.081,2.432a1.037,1.037,0,1,0,1.32-1.6c-2.852-2.345-6.09-2.625-9.221-2.9Z" transform="translate(-406.235 -1001.105)" fill="#7b78a1"/>
        </g>
        <g id="Group_106159" data-name="Group 106159" transform="translate(345.264 9.027)">
          <path id="Path_99355" data-name="Path 99355" d="M1842.284,1258.9a29.818,29.818,0,0,1-2.638-5.965,31.97,31.97,0,0,1-.625-5.447c-.386-5.94-.866-13.331-6.715-14.686a3.893,3.893,0,0,0-3.444.794c-2.661,2.155-3.432,7.781-3.389,10.168a45.525,45.525,0,0,0,1.52,10.225,35.665,35.665,0,0,1,.835,10.19c-.072,4.77-.146,9.7,2.642,15.039a1.037,1.037,0,0,0,.92.557,1.065,1.065,0,0,0,.481-.117,1.04,1.04,0,0,0,.439-1.4c-2.545-4.869-2.477-9.326-2.4-14.047a37.835,37.835,0,0,0-.905-10.76,43.588,43.588,0,0,1-1.45-9.722c-.039-2.128.711-6.973,2.619-8.518a1.814,1.814,0,0,1,1.67-.384c4.345,1.006,4.752,7.27,5.113,12.8a33.063,33.063,0,0,0,.693,5.847,31.817,31.817,0,0,0,2.809,6.4c.173.328.344.65.511.969a1.038,1.038,0,1,0,1.84-.961c-.169-.324-.342-.65-.518-.982Z" transform="translate(-1794.559 -1172.76)" fill="#7b78a1"/>
          <path id="Path_99356" data-name="Path 99356" d="M1889.511,1094.359l-.254-.144c-1.99-1.145-3.937-2.436-5.818-3.681-1.6-1.06-3.252-2.155-4.94-3.168a19.336,19.336,0,0,0-2.477-1.184,10.607,10.607,0,0,1-3.292-1.844,1.037,1.037,0,0,0-1.442,1.491,12.268,12.268,0,0,0,3.929,2.266,17.729,17.729,0,0,1,2.215,1.052c1.65.99,3.283,2.073,4.863,3.118,1.91,1.264,3.881,2.572,5.929,3.75l.268.153c3.156,1.786,3.549,2.716,3.351,3.143-.856.978-7.8,1.109-11.529,1.182a40.966,40.966,0,0,0-7.134.448c-1.046.281-2.384,1.467-3.49,8.2a64.584,64.584,0,0,0-.87,9.135,1.037,1.037,0,0,0,1.037,1.019h.021a1.038,1.038,0,0,0,1.019-1.056c-.12-6.323,1.953-14.8,2.823-15.291a44,44,0,0,1,6.635-.377c8.388-.161,12.44-.443,13.336-2.318,1.328-2.772-2.529-4.954-4.176-5.886Z" transform="translate(-1828.967 -1054.769)" fill="#7b78a1"/>
          <path id="Path_99357" data-name="Path 99357" d="M1719.965,1146.137c-.949-2.5-2.023-5.327-4.57-5.915-4.368-1.011-8.081.563-11.669,2.085l-.726.307c-1.761.742-7.621,2.324-9.332,2.147.458-1.794,4.28-7.392,6.062-9.242l.208-.217c2.611-2.7,6.187-6.4,7.685-9.537a1.038,1.038,0,1,0-1.875-.893c-1.351,2.834-4.791,6.391-7.3,8.988l-.21.217c-1.161,1.2-6.973,8.739-6.676,11.248a1.488,1.488,0,0,0,.662,1.108c2.273,1.46,11.494-1.869,11.582-1.906l.732-.309c3.584-1.52,6.68-2.832,10.392-1.974,1.466.34,2.3,2.52,3.1,4.63a11.978,11.978,0,0,0,2.312,4.343,1.04,1.04,0,0,0,.722.291,1.056,1.056,0,0,0,.747-.316,1.039,1.039,0,0,0-.025-1.469A11.073,11.073,0,0,1,1719.965,1146.137Z" transform="translate(-1688.254 -1086.707)" fill="#7b78a1"/>
          <path id="Path_99358" data-name="Path 99358" d="M1748.133,988.79c-2.283-1.466-5,1.943-8.437,6.261-2.2,2.762-4.931,6.2-6.587,6.643-1.9.514-5.193-1.112-8.369-2.683-4.15-2.052-8.439-4.172-12.181-3.36a3.048,3.048,0,0,0-2.17,1.563c-.975,1.879.173,4.616.726,5.929a49.863,49.863,0,0,0,5.049,8.571,63.634,63.634,0,0,1,3.931,6.266,1.039,1.039,0,0,0,.922.559,1.025,1.025,0,0,0,.478-.118,1.038,1.038,0,0,0,.441-1.4,65.083,65.083,0,0,0-4.057-6.478,48.316,48.316,0,0,1-4.849-8.2c-.328-.78-1.324-3.153-.8-4.168a1,1,0,0,1,.769-.493c3.028-.66,6.987,1.3,10.817,3.193,3.683,1.823,7.163,3.545,9.829,2.828,2.316-.623,4.919-3.894,7.674-7.357,1.627-2.046,4.624-5.814,5.624-5.814a.3.3,0,0,1,.043,0c1.24,1.819-.864,16.229-1.809,18.217a1.037,1.037,0,1,0,1.873.891c.561-1.18,1.464-5.9,1.972-10.314,1.068-9.279-.305-10.159-.891-10.535Z" transform="translate(-1702.91 -978.884)" fill="#7b78a1"/>
          <path id="Path_99359" data-name="Path 99359" d="M1888.422,1276.266c-.105-.483-.213-.961-.32-1.44-.854-3.795-1.66-7.379-.7-11.11l.239-.922a67.044,67.044,0,0,0,2.528-14.579c.559-7.454-4.77-15.648-6.418-17.98-2.988-4.22-5.952-6.065-10.236-6.371a1.05,1.05,0,0,0-1.108.961,1.039,1.039,0,0,0,.961,1.11c3.681.262,6.037,1.751,8.687,5.5,3.186,4.515,6.447,11.253,6.045,16.629a64.852,64.852,0,0,1-2.469,14.214l-.239.924c-1.085,4.216-.186,8.215.685,12.084.107.472.214.949.318,1.425.458,2.1,3.195,12.515,5.005,19.405.524,1.992,2.871,12.886,3.927,17.7h2.124c-.99-4.5-3.5-16.155-4.044-18.228-1.807-6.874-4.537-17.264-4.985-19.319Z" transform="translate(-1831.814 -1165.751)" fill="#7b78a1"/>
          <path id="Path_99360" data-name="Path 99360" d="M1794.335,1242.459c-1.524.8-2.122,2.646-2.7,4.436-.417,1.293-.891,2.757-1.547,2.935-.623.165-.833-.027-.924-.109-.827-.755-.9-3.6-.5-5.909.881-5.007,2.242-8.54,6.3-10.677a1.038,1.038,0,0,0-.967-1.838c-4.789,2.522-6.412,6.684-7.373,12.154-.171.973-.916,5.919,1.141,7.8a2.72,2.72,0,0,0,1.881.72,3.761,3.761,0,0,0,.982-.138c1.749-.468,2.376-2.417,2.984-4.3.429-1.328.914-2.832,1.685-3.236a1.038,1.038,0,1,0-.961-1.84Z" transform="translate(-1763.506 -1171.556)" fill="#7b78a1"/>
          <path id="Path_99361" data-name="Path 99361" d="M1807.654,1325.042a1.038,1.038,0,0,0-1.384.489c-1.5,3.122-2.791,3.547-3.277,3.584a1.744,1.744,0,0,1-1.475-.908,6.462,6.462,0,0,1-.171-6.086,1.038,1.038,0,1,0-1.873-.9,8.558,8.558,0,0,0,.332,8.157,3.8,3.8,0,0,0,3.1,1.813c.083,0,.167,0,.25-.01,1.285-.1,3.193-1.006,4.989-4.758a1.037,1.037,0,0,0-.489-1.384Z" transform="translate(-1773.233 -1242.565)" fill="#7b78a1"/>
          <path id="Path_99362" data-name="Path 99362" d="M1822.1,1370.054c-2.32-1.107-2.619-4.385-2.64-5.744a1.049,1.049,0,0,0-1.054-1.021,1.036,1.036,0,0,0-1.021,1.054c.056,3.688,1.45,6.451,3.822,7.583a1.049,1.049,0,0,0,.448.1,1.037,1.037,0,0,0,.448-1.974Z" transform="translate(-1788.143 -1276.422)" fill="#7b78a1"/>
          <path id="Path_99363" data-name="Path 99363" d="M1849.423,1448.354a1.038,1.038,0,1,0-1.84.961c1.732,3.32,2.489,18.054,2.9,25.97.128,2.473.219,10.531.3,16.279h2.054c-.087-5.863-.182-14.36-.287-16.386-.6-11.69-1.337-23.388-3.129-26.822Z" transform="translate(-1812.016 -1343.5)" fill="#7b78a1"/>
          <path id="Path_99364" data-name="Path 99364" d="M1822.889,942.1a1.05,1.05,0,0,0-1.155.907c-.153,1.277-.2,2.58-.256,3.84s-.1,2.44-.237,3.589a1.039,1.039,0,0,0,.905,1.155.863.863,0,0,0,.126.008,1.039,1.039,0,0,0,1.029-.914c.148-1.231.2-2.514.25-3.756.05-1.219.1-2.479.243-3.675a1.04,1.04,0,0,0-.907-1.155Z" transform="translate(-1791.195 -942.093)" fill="#7b78a1"/>
          <path id="Path_99365" data-name="Path 99365" d="M1785.749,947.965q-.337-1.108-.683-2.213a1.038,1.038,0,1,0-1.98.623c.231.73.454,1.462.679,2.194.524,1.714,1.064,3.485,1.687,5.212a1.037,1.037,0,1,0,1.951-.7c-.6-1.679-1.138-3.426-1.654-5.115Z" transform="translate(-1760.877 -944.42)" fill="#7b78a1"/>
          <path id="Path_99366" data-name="Path 99366" d="M1950.959,1015.74a1.038,1.038,0,0,0-1.437.295,13.937,13.937,0,0,1-2.652,2.727,21.066,21.066,0,0,0-2.331,2.225,1.038,1.038,0,0,0,1.578,1.349,19.207,19.207,0,0,1,2.108-2,15.658,15.658,0,0,0,3.032-3.158,1.037,1.037,0,0,0-.295-1.437Z" transform="translate(-1888.871 -1000.414)" fill="#7b78a1"/>
          <path id="Path_99367" data-name="Path 99367" d="M1965.374,1054.243c-.419.115-.827.264-1.221.406a5.454,5.454,0,0,1-2.337.5,1.038,1.038,0,1,0-.25,2.06,4.253,4.253,0,0,0,.511.031,8.221,8.221,0,0,0,2.78-.641c.373-.136.726-.262,1.068-.357a1.038,1.038,0,1,0-.553-2Z" transform="translate(-1901.861 -1031.084)" fill="#7b78a1"/>
          <path id="Path_99368" data-name="Path 99368" d="M1683.131,1120.793a9.833,9.833,0,0,0-4.884-1.167c-.53-.033-1.031-.064-1.5-.122a1.038,1.038,0,1,0-.25,2.06c.53.064,1.085.1,1.621.132a8.255,8.255,0,0,1,3.865.825,1.036,1.036,0,1,0,1.145-1.728Z" transform="translate(-1675.584 -1082.91)" fill="#7b78a1"/>
          <path id="Path_99369" data-name="Path 99369" d="M1946.345,1207.139a1.037,1.037,0,1,0-1.145,1.73,8.434,8.434,0,0,1,2.673,3,1.038,1.038,0,0,0,1.852-.936A10.526,10.526,0,0,0,1946.345,1207.139Z" transform="translate(-1889.225 -1152.34)" fill="#7b78a1"/>
          <path id="Path_99370" data-name="Path 99370" d="M1748.107,1251.184a1.035,1.035,0,0,0-1.437.293,24.9,24.9,0,0,0-2.007,3.97c-.248.571-.493,1.143-.759,1.7a1.037,1.037,0,1,0,1.875.889c.276-.582.532-1.176.788-1.77a22.987,22.987,0,0,1,1.831-3.646,1.035,1.035,0,0,0-.293-1.437Z" transform="translate(-1729.734 -1187.299)" fill="#7b78a1"/>
          <path id="Path_99371" data-name="Path 99371" d="M1781.73,1062.455l-.757-.357a36.072,36.072,0,0,1-4.636-2.452,1.037,1.037,0,1,0-1.145,1.73,37.989,37.989,0,0,0,4.9,2.6l.753.355a1.037,1.037,0,1,0,.887-1.875Z" transform="translate(-1754.28 -1035.265)" fill="#7b78a1"/>
        </g>
      </g>
    </g>
    <g id="Login-2" data-name="Login" transform="translate(867.048 -592.868)" opacity="0.29">
      <g id="Layer_1-2" data-name="Layer 1" transform="translate(1.5 898.322)">
        <path id="Path_99304-2" data-name="Path 99304" d="M233.82,1528.347h2.5c2.58-5.065,5.973-10.844,8.809-15.493,5.01-8.213,9.78-15.361,11.3-17.361l-1.784-1.353c-2.869,3.782-14.75,22-20.826,34.209Z" transform="translate(-185.906 -1371.258)" fill="#7b78a1"/>
        <g id="Group_106149-2" data-name="Group 106149" transform="translate(248.457 64.189)">
          <path id="Path_99305-2" data-name="Path 99305" d="M1472.084,1536.06c.153.808-1.7,1.114-2.062.852-1.858-1.334-4.1,1.254-5.962,2.112-11.083,5.129-16.035,2.929-23.008,4.15-2.289.4-5.81,11.2-5.29,18.45h47.3c-1.543-6.4-5.507-14.831-6.7-18a84.811,84.811,0,0,0-4.273-7.565Z" transform="translate(-1388.374 -1468.721)" fill="#d1cef3"/>
          <path id="Path_99306-2" data-name="Path 99306" d="M1460.194,1420.852a11.478,11.478,0,0,1-2.76,1.318,17.864,17.864,0,0,0-2.564,1.128c-6.849,3.908-15.617,5.81-26.809,5.81h-.025a1.037,1.037,0,1,0,0,2.075h.025c11.562,0,20.667-1.99,27.838-6.082a16.182,16.182,0,0,1,2.271-.99,13.264,13.264,0,0,0,3.267-1.6,1.037,1.037,0,0,0-1.242-1.662Z" transform="translate(-1381.461 -1377.111)" fill="#7b78a1"/>
          <path id="Path_99307-2" data-name="Path 99307" d="M1488.764,1532.506c-2.557.852-5.135,1.794-7.629,2.7s-5.047,1.844-7.583,2.687c-4.653,1.549-9.928,1.551-14.625,1.547a1.037,1.037,0,0,0,0,2.075h.382c4.735,0,10.056-.041,14.9-1.652,2.566-.854,5.146-1.8,7.639-2.708s5.045-1.842,7.573-2.685a1.038,1.038,0,0,0-.658-1.97Z" transform="translate(-1405.98 -1465.856)" fill="#7b78a1"/>
          <path id="Path_99308-2" data-name="Path 99308" d="M1422.678,1463.135a1.04,1.04,0,0,0-.423,1.407c2.863,5.317,6.695,13.21,6.915,20.344a1.039,1.039,0,0,0,1.037,1.006h.033a1.04,1.04,0,0,0,1.006-1.07c-.235-7.573-4.2-15.763-7.163-21.263A1.04,1.04,0,0,0,1422.678,1463.135Z" transform="translate(-1377.597 -1410.738)" fill="#7b78a1"/>
          <path id="Path_99309-2" data-name="Path 99309" d="M1589.518,1438.875c-.7-2.937-1.413-5.973-1.866-9.009-.169-1.141-.285-2.337-.4-3.494a48.61,48.61,0,0,0-.67-5.1,1.039,1.039,0,0,0-2.036.415,47.767,47.767,0,0,1,.639,4.88c.113,1.184.231,2.409.408,3.6.468,3.122,1.2,6.2,1.9,9.18.425,1.794.862,3.648,1.235,5.478a1.038,1.038,0,1,0,2.034-.413c-.377-1.862-.821-3.733-1.248-5.542Z" transform="translate(-1506.502 -1376.952)" fill="#7b78a1"/>
          <path id="Path_99310-2" data-name="Path 99310" d="M1454.364,1247.508c0-2.5-.006-5.086-1.046-7.4-1.625-3.624-3.615-7.12-5.54-10.5a106.923,106.923,0,0,1-6.175-12.005c-.7-1.7-5.373-7.992-9.05-8.045a3.181,3.181,0,0,0-3.028,2.149c-1.961,4.4.526,9.2,2.931,13.837,1.922,3.708,3.737,7.21,3.054,10.013a1.038,1.038,0,1,0,2.017.491c.866-3.56-1.215-7.575-3.23-11.459-2.18-4.2-4.432-8.551-2.879-12.036.413-.928.873-.924,1.1-.918,2.326.035,6.526,5.214,7.161,6.759a108.416,108.416,0,0,0,6.291,12.242c1.9,3.339,3.865,6.792,5.449,10.324.858,1.91.86,4.166.862,6.552,0,3.18.006,6.472,2.151,9.083a1.038,1.038,0,0,0,1.6-1.316c-1.675-2.038-1.677-4.822-1.679-7.767Z" transform="translate(-1382.905 -1209.554)" fill="#7b78a1"/>
          <path id="Path_99311-2" data-name="Path 99311" d="M1258.951,1280.007c-2.038.466-4.3,0-6.7-.482a27.79,27.79,0,0,0-4.874-.7,50.047,50.047,0,0,1-25.627-7.522l-.06-.039c-10.869-6.841-13.542-6.206-14.66-4.892a3.684,3.684,0,0,0-.81,2.846c.439,4.451,7.06,10.549,8.808,11.939a201.092,201.092,0,0,0,18.065,12.667,30.164,30.164,0,0,0,7.093,2.929,35,35,0,0,1,5.346,2.007c.542.276,1.161.561,1.815.864,2.918,1.345,6.913,3.188,7.553,5.977a1.038,1.038,0,0,0,1.01.806,1.011,1.011,0,0,0,.233-.027,1.038,1.038,0,0,0,.78-1.244c-.866-3.785-5.4-5.874-8.708-7.4-.635-.293-1.229-.567-1.743-.829a36.925,36.925,0,0,0-5.661-2.135,28.772,28.772,0,0,1-6.614-2.706,199.133,199.133,0,0,1-17.877-12.533c-2.566-2.038-7.726-7.388-8.035-10.518a1.664,1.664,0,0,1,.328-1.3c.012-.016,1.693-1.161,11.97,5.307l.062.039a52.124,52.124,0,0,0,26.69,7.839,25.828,25.828,0,0,1,4.5.658c2.508.51,5.1,1.037,7.575.472a1.037,1.037,0,0,0-.46-2.023Z" transform="translate(-1206.196 -1253.988)" fill="#7b78a1"/>
        </g>
        <g id="Group_106150-2" data-name="Group 106150" transform="translate(256.273 25.719)">
          <path id="Path_99312-2" data-name="Path 99312" d="M1352.728,1075.98c.291.322.142-.528-.105-1.53A1.305,1.305,0,0,0,1352.728,1075.98Z" transform="translate(-1330.085 -1063.845)" fill="#6ad7e7"/>
          <path id="Path_99313-2" data-name="Path 99313" d="M1270.181,1029.743c-.777.856-2.9,2.481-3.551,3.89.247,1,.4,1.852.105,1.53a1.3,1.3,0,0,1-.105-1.53c-.243-.982-.58-2.112-.689-2.436-.854-2.446-5.181-7.416-7.893-7.922-5.981-1.112-10.467,1.555-12.593,7.183-5.271,13.954,5.948,27.713,13.224,38.311a73.79,73.79,0,0,0,7.557,9.081c.439.46,1.759,3.2,2.3,3.263a24.592,24.592,0,0,0,1.485-2.677c1.392-3.263,3.316-6.239,4.865-9.446,4.5-9.32,10.019-18.2,12.226-28.5.848-3.947,2.192-8.751-.472-12.288-4.183-5.562-12.416-2.9-16.46,1.543Z" transform="translate(-1244.092 -1023.028)" fill="#d1cef3"/>
        </g>
        <g id="Group_106152-2" data-name="Group 106152" transform="translate(0 15.777)">
          <g id="Group_106151-2" data-name="Group 106151">
            <path id="Path_99314-2" data-name="Path 99314" d="M12.938,1262.578A50.736,50.736,0,0,1,1.8,1263.933a.992.992,0,0,0-.3.056v1.966a1.018,1.018,0,0,0,.318.056h.016a53.025,53.025,0,0,0,11.636-1.425,1.038,1.038,0,0,0-.536-2Z" transform="translate(-1.5 -1203.204)" fill="#7b78a1"/>
            <path id="Path_99315-2" data-name="Path 99315" d="M11.142,1147.678a79.825,79.825,0,0,1-9.642.693v2.073c3.518-.118,9.112-.38,10.329-.806a1.037,1.037,0,1,0-.687-1.957Z" transform="translate(-1.5 -1111.982)" fill="#7b78a1"/>
            <path id="Path_99316-2" data-name="Path 99316" d="M126.159,1096.7c-1.3.132-2.648.27-3.937.278-1.945,0-4.682-.571-4.735-1.691a1.038,1.038,0,0,0-2.073.1c.173,3.533,5.925,3.665,6.779,3.665h.043c1.39-.008,2.786-.151,4.135-.289,4.051-.415,7.546-.771,10.135,2.24a2.4,2.4,0,0,1,.747,1.891c-.2,1.336-2.1,2.535-3.118,3.178-.868.549-1.392.879-1.357,1.613.033.6.429.905,1.217,1.518,1.178.916,3.368,2.617,3.075,4.4-.124.782-.4,1.324-.707,1.409l-.2.052c-2.163.534-3.356.827-3.141,2.021.136.687.7,1.108,1.411,1.64,1.079.806,2.421,1.807,2.411,3.706,0,.633-.53,1.229-1.652,1.869-.1.031-.324.08-.466.113-.526.118-1.617.361-1.411,1.4a3.323,3.323,0,0,0,1.431,1.877c.914.732,1.136,1.021.959,1.652-1.027,3.671-6.119,4.64-9.84,5.35l-.58.111c-6.538,1.262-13.391-1.048-20.018-3.283-4.729-1.594-9.619-3.244-14.4-3.6a1.037,1.037,0,0,0-.155,2.069c4.521.34,9.075,1.877,13.894,3.5,5.49,1.852,11.129,3.754,16.774,3.754a22.47,22.47,0,0,0,4.3-.4l.575-.109c4.013-.765,10.077-1.92,11.448-6.829a3.392,3.392,0,0,0-1.565-3.756.179.179,0,0,0,.027-.014c.679-.382,2.743-1.549,2.753-3.692a6.307,6.307,0,0,0-2.976-5.179c.206-.054.443-.113.718-.182.124-.031.214-.053.258-.066,1.159-.32,1.943-1.417,2.2-3.079.474-2.877-2.126-5.02-3.675-6.229,1.4-.891,3.537-2.328,3.863-4.5a4.376,4.376,0,0,0-1.225-3.552c-3.294-3.834-7.678-3.386-11.919-2.951Z" transform="translate(-71.547 -1069.655)" fill="#7b78a1"/>
            <path id="Path_99317-2" data-name="Path 99317" d="M109.418,991.664c.621-3.836,1.264-7.8-.877-11.461l-.272-.472c-1.242-2.159-3.554-6.179-7.414-4.519-3.378,1.45-2.192,5.294-1.407,7.839a13.142,13.142,0,0,1,.617,2.491,20.131,20.131,0,0,1-3.556,12.051c-2.586,3.966-6.829,7.334-10.572,10.306l-.3.239a15.752,15.752,0,0,1-4.828,1.848,1.038,1.038,0,0,0,.074,2.073c.025,0,.052,0,.078,0a16.682,16.682,0,0,0,5.96-2.287l.307-.243c3.867-3.069,8.25-6.548,11.019-10.8a22.206,22.206,0,0,0,3.888-13.323,14.074,14.074,0,0,0-.7-2.966c-.982-3.186-1.182-4.711.241-5.321,2-.858,3.356,1.143,4.8,3.646l.28.487c1.763,3.013,1.207,6.447.619,10.081a38.356,38.356,0,0,0-.563,4.661,12.844,12.844,0,0,0,.582,3.929c.118.45.237.907.338,1.384a1.038,1.038,0,1,0,2.031-.427c-.107-.511-.235-1-.363-1.487a11.039,11.039,0,0,1-.516-3.325,36.563,36.563,0,0,1,.538-4.407Z" transform="translate(-63.688 -974.82)" fill="#7b78a1"/>
          </g>
          <path id="Path_99318-2" data-name="Path 99318" d="M63.084,1233.151c-.012-.07-.006-.231-.066-.175a6.81,6.81,0,0,1-5.115,1.557,8.984,8.984,0,0,1-2.489-.728c-.177,1.586.289,3.226.237,4.824-.021.652-.144,2.335.415,2.762.736.563,5.319-.153,6.27-.309.769-.128,1.353-.114,1.635-.361.309-.27-.021-2.623-.316-4.17S63.21,1234.087,63.084,1233.151Z" transform="translate(-44.263 -1179.724)" fill="#d1cef3"/>
          <path id="Path_99319-2" data-name="Path 99319" d="M55.839,1136.651c-.881-.1-6.414.291-6.8.988-.316.553-.033,2.545.039,3.3.138,1.343.21,1.639.584,3.7.006.039.19.833.217.844.138.047,2-.813,2.265-.856a14.2,14.2,0,0,1,4.694.13c.283.023.2-1.6.157-1.9-.132-.988-.045-6.086-1.155-6.21Z" transform="translate(-39.117 -1103.263)" fill="#d1cef3"/>
          <path id="Path_99320-2" data-name="Path 99320" d="M37.572,1176.042c-2.757,2.221-4.18,6.193-1.143,10.063a6.2,6.2,0,0,0,5.02,2.452,7.676,7.676,0,0,0,1.136-.087,9.5,9.5,0,0,0,7.21-5.676,6.1,6.1,0,0,0-1.06-6.284c-2.935-3.556-7.982-3.03-11.166-.468Zm10.285,6.012a7.443,7.443,0,0,1-5.581,4.364,4.283,4.283,0,0,1-4.213-1.592h0a4.777,4.777,0,0,1,.811-7.165,7.157,7.157,0,0,1,4.381-1.6,4.889,4.889,0,0,1,3.884,1.776,4.048,4.048,0,0,1,.722,4.22Z" transform="translate(-27.873 -1132.907)" fill="#7b78a1"/>
          <path id="Path_99321-2" data-name="Path 99321" d="M61.038,1200.944h-.016c-.184-.012-.841-.194-1.324-.324-2.062-.565-2.9-.738-3.531-.305a7.328,7.328,0,0,0-1.813,2.246,8.7,8.7,0,0,1-.934,1.34,1.036,1.036,0,0,0,.021,1.466,1.025,1.025,0,0,0,.724.293,1.04,1.04,0,0,0,.745-.313,10.041,10.041,0,0,0,1.213-1.7,8.489,8.489,0,0,1,1.064-1.5,18.6,18.6,0,0,1,1.965.466,7.888,7.888,0,0,0,1.877.4,1.051,1.051,0,0,0,1.035-1.054,1.025,1.025,0,0,0-1.023-1.021Z" transform="translate(-42.478 -1153.616)" fill="#7b78a1"/>
        </g>
        <path id="Path_99322-2" data-name="Path 99322" d="M880.637,997c-1.7-2.471,3.224-23.076-6.934-19.29-4.486,1.673-13.6,12.391-16.526,12.57-3.3.2-16.823-1.635-18.3,1.6-2.159,4.731,1.452,9.856,4.517,13.191,1.083,1.18,4.215,3.574,4.444,4.372.342,1.2-1.169,4.24-1.549,5.494-1.32,4.356-3.44,8.412-4.964,12.614-.545,1.485-2.318,5.158-.2,6.008,6.567,2.63,16.664-8.922,20.756-7.053,1.786.815,13.952,14.336,15.831,12.4,3.663-3.764.965-16.514,3.23-19.506,1.734-2.291,13.657-8.681,13.065-11.634C893.164,1003.508,882.514,999.73,880.637,997Z" transform="translate(-665.656 -960.967)" fill="#d1cef3"/>
        <g id="Group_106154-2" data-name="Group 106154" transform="translate(180.252 58.61)">
          <path id="Path_99323-2" data-name="Path 99323" d="M1038.137,1255.888a61.847,61.847,0,0,0,.619-11.411,88.761,88.761,0,0,0-1.578-10.613c-.681-3.562-1.58-7.156-3.523-9.328a1.038,1.038,0,0,0-1.547,1.386c1.827,2.042,2.64,6.29,3.032,8.336a87.042,87.042,0,0,1,1.547,10.368,60.32,60.32,0,0,1-.61,11.026,61.947,61.947,0,0,0-.619,11.475c.27,3.908,8.885,33.937,12.841,46.951h2.147c-3.892-12.694-12.682-43.671-12.919-47.095a60.607,60.607,0,0,1,.608-11.092Z" transform="translate(-999.597 -1215.593)" fill="#7b78a1"/>
          <path id="Path_99324-2" data-name="Path 99324" d="M1009.805,1265.313l-.175-.66c-.285-1.066-.716-2.679-1.112-4.684a1.037,1.037,0,1,0-2.036.4c.41,2.073.85,3.725,1.143,4.818l.171.643c.074.293.167.6.26.918a7.093,7.093,0,0,1,.466,3.052.362.362,0,0,1-.371.289c-.132.012-.584-.023-.8-.732a1.038,1.038,0,1,0-1.984.61,2.924,2.924,0,0,0,2.762,2.2c.045,0,.091,0,.136,0a2.421,2.421,0,0,0,2.3-1.968,8.558,8.558,0,0,0-.516-4.038c-.087-.293-.171-.575-.241-.848Z" transform="translate(-978.543 -1243.329)" fill="#7b78a1"/>
          <path id="Path_99325-2" data-name="Path 99325" d="M888.3,1364.61c-2.343-3.948-4.764-8.031-6.9-12.529-1.922-4.061-5.2-15.421-3.335-17.277.386-.386,1.316-.021,1.836.231a1.038,1.038,0,1,0,.9-1.87c-2.242-1.081-3.523-.505-4.2.167-3.671,3.646,2.85,19.483,2.922,19.638,2.176,4.587,4.622,8.712,6.99,12.7,3.279,5.527,6.377,10.747,8.763,17.031a154.317,154.317,0,0,1,5.053,17.394h2.13a158.731,158.731,0,0,0-5.245-18.131,110.686,110.686,0,0,0-8.918-17.353Z" transform="translate(-875.489 -1301.614)" fill="#7b78a1"/>
          <path id="Path_99326-2" data-name="Path 99326" d="M900.97,1292.285c-1.015-3.469-1.627-5.562-4.315-8.349a3.539,3.539,0,0,0-3.931-.608,5.059,5.059,0,0,0-3.145,4.7c-.023,2.869,1.326,7.225,2.753,11.838.382,1.233.765,2.475,1.124,3.692a1.039,1.039,0,0,0,1.992-.588c-.361-1.225-.747-2.477-1.132-3.719-1.318-4.259-2.679-8.662-2.661-11.207a2.948,2.948,0,0,1,1.838-2.793,1.585,1.585,0,0,1,1.671.12c2.335,2.419,2.83,4.115,3.818,7.491.38,1.3.81,2.774,1.435,4.612a1.037,1.037,0,0,0,1.963-.668c-.61-1.792-1.035-3.244-1.409-4.525Z" transform="translate(-886.673 -1262.277)" fill="#7b78a1"/>
          <path id="Path_99327-2" data-name="Path 99327" d="M934.28,1267.068a40.25,40.25,0,0,0-3.079-8.109c-1.132-2.056-2.733-3.075-4.4-2.809-1.844.3-3.285,2.137-3.766,4.791-.268,1.489.037,3.376,2.564,10.621a1.038,1.038,0,0,0,1.959-.685c-2.331-6.686-2.669-8.52-2.481-9.568.359-1.976,1.293-2.986,2.06-3.112.751-.12,1.563.522,2.248,1.761a38.057,38.057,0,0,1,2.908,7.7,53.346,53.346,0,0,0,2.064,6.026,1.038,1.038,0,0,0,.953.625,1.008,1.008,0,0,0,.412-.087,1.04,1.04,0,0,0,.54-1.365,51.574,51.574,0,0,1-1.98-5.793Z" transform="translate(-913.165 -1240.928)" fill="#7b78a1"/>
          <g id="Group_106153-2" data-name="Group 106153" transform="translate(14.379)">
            <path id="Path_99329-2" data-name="Path 99329" d="M957.953,1201.9c-1.648-6.979-3.7-15.662-7.031-18.463a2.874,2.874,0,0,0-3.269-.681c-1.974.965-2.5,4.416-2.44,5.934.223,6.127,2.46,13.191,4.539,19.329a1.038,1.038,0,0,0,1.965-.666c-2.031-6-4.218-12.892-4.43-18.741-.054-1.458.536-3.632,1.279-3.995.295-.142.767.192,1.023.406,2.8,2.357,4.851,11.021,6.344,17.349.666,2.823,1.242,5.263,1.811,6.94a1.038,1.038,0,0,0,1.965-.666c-.536-1.584-1.1-3.978-1.755-6.75Z" transform="translate(-945.21 -1182.503)" fill="#7b78a1"/>
          </g>
        </g>
        <g id="Group_106156-2" data-name="Group 106156" transform="translate(428.836 11.871)">
          <path id="Path_99330-2" data-name="Path 99330" d="M2172.354,989.732c-1.252-.13-2.545-.225-3.912-.324-6.212-.454-13.255-.969-17.491-5.212a12.415,12.415,0,0,1-2.518-4.739,15.386,15.386,0,0,0-2.487-4.9c-1.178-1.382-2.432-2.6-3.648-3.774a30.387,30.387,0,0,1-5.315-6.162,17.977,17.977,0,0,1-.969-2.683c-.978-3.114-1.9-6.055-3.826-6.055h-.06a5.938,5.938,0,0,0-4.383,1.937c-2.31,2.539-2.409,6.794-2.262,9.1.155,2.485,1.7,5.212,3.186,7.847,2.025,3.584,3.939,6.969,2.456,9.3a1.038,1.038,0,1,0,1.751,1.116c2.151-3.384-.163-7.478-2.4-11.436-1.375-2.432-2.8-4.948-2.92-6.957-.1-1.6-.136-5.531,1.726-7.577a3.872,3.872,0,0,1,2.828-1.256c.619.439,1.5,3.238,1.924,4.6a17.2,17.2,0,0,0,1.169,3.131,32.413,32.413,0,0,0,5.651,6.585c1.18,1.143,2.4,2.322,3.51,3.63a13.66,13.66,0,0,1,2.118,4.267,14.144,14.144,0,0,0,3,5.5c4.781,4.787,12.232,5.333,18.807,5.814,1.351.1,2.63.192,3.851.32,1.667.173,3.382.4,5.043.615,2.512.328,5.1.666,7.664.85v-2.081c-2.46-.181-4.962-.507-7.4-.827-1.673-.219-3.405-.445-5.1-.621Z" transform="translate(-2116.232 -955.88)" fill="#7b78a1"/>
          <path id="Path_99331-2" data-name="Path 99331" d="M2109.521,1095.131l-.349-.116c-1.188-.4-8.472-.6-9.357-.575-4.135.06-7.551,1.293-9.135,3.3a4.792,4.792,0,0,0-.9,4.137c.726,3.265,5.168,3.729,7.064,3.925,4.935.514,9.953.916,14.806,1.305l1.186.095c.386.031.926.074,1.543.074,1.957,0,4.69-.437,5.771-3.087a3.44,3.44,0,0,0-.076-2.809c-1.343-2.9-6.346-4.863-10.555-6.247Zm8.709,8.272c-.588,1.439-2.194,1.974-5.226,1.728l-1.186-.095c-4.841-.388-9.846-.79-14.759-1.3-1.452-.151-4.851-.505-5.253-2.31a2.707,2.707,0,0,1,.5-2.4c1.167-1.475,4.125-2.46,7.536-2.51h.179a84.884,84.884,0,0,1,8.495.472l.355.118c5.43,1.784,8.565,3.514,9.32,5.146a1.367,1.367,0,0,1,.037,1.155Z" transform="translate(-2087.825 -1065.861)" fill="#7b78a1"/>
          <path id="Path_99332-2" data-name="Path 99332" d="M2108.64,1140.17a14.116,14.116,0,0,0-6.618-1.6,1.037,1.037,0,0,0,.159,2.069c2.788-.208,8.616,2.184,9.625,5.02a2.667,2.667,0,0,1-.217,2.7c-.864,1.1-2.989,1.716-5.166,1.487-3.3-.342-6.6-.806-9.794-1.252q-1.717-.241-3.442-.476c-.937-.128-1.9-.163-2.823-.2a12.43,12.43,0,0,1-5.5-1.027,3.937,3.937,0,0,1-1.875-4.457,4.1,4.1,0,0,1,3.56-3.442,1.037,1.037,0,0,0-.159-2.069,6.164,6.164,0,0,0-5.434,5.084,5.991,5.991,0,0,0,2.931,6.715,14.183,14.183,0,0,0,6.4,1.27c.92.035,1.788.068,2.624.182q1.723.235,3.434.476c3.209.45,6.53.916,9.869,1.262a10.651,10.651,0,0,0,1.083.056c2.085,0,4.57-.592,5.929-2.324a4.644,4.644,0,0,0,.541-4.682c-.862-2.419-3.578-4.042-5.121-4.793Z" transform="translate(-2080.799 -1099.586)" fill="#7b78a1"/>
          <path id="Path_99333-2" data-name="Path 99333" d="M2110.822,1191.514c-.445-.2-.922-.4-1.439-.65a1.037,1.037,0,1,0-.889,1.875c.538.256,1.033.472,1.5.676a9.557,9.557,0,0,1,3.84,2.473,1.627,1.627,0,0,1,.2,1.953,4.781,4.781,0,0,1-3.366,2.667c-9.984.027-13.028-.5-16.547-1.3a5.8,5.8,0,0,1-3.739-3.187,4.713,4.713,0,0,1,.445-3.844,2.243,2.243,0,0,1,1.755-1.112,1.037,1.037,0,0,0-.159-2.069,4.331,4.331,0,0,0-3.339,2.05,6.757,6.757,0,0,0-.66,5.672,7.778,7.778,0,0,0,5.23,4.513c3.562.815,6.651,1.353,16.2,1.353h.813c1.92-.006,4.327-1.794,5.259-3.906a3.744,3.744,0,0,0-.559-4.185,11.631,11.631,0,0,0-4.546-2.98Z" transform="translate(-2086.575 -1140.917)" fill="#7b78a1"/>
          <path id="Path_99334-2" data-name="Path 99334" d="M2104.148,1237.961a1.038,1.038,0,0,0-.1,2.073,7.579,7.579,0,0,1,5.888,2.6,1.033,1.033,0,0,1,.355,1.042c-.248.9-1.679,1.84-2.865,2.2-3.82,1.159-9.506-.049-13.447-1.763-2.211-.963-3.351-2.906-3.141-4.156.2-1.213,1.681-1.505,2.543-1.572a1.037,1.037,0,0,0-.159-2.068c-3.543.272-4.28,2.394-4.432,3.3-.4,2.392,1.47,5.146,4.36,6.4a28.714,28.714,0,0,0,10.77,2.4,14.218,14.218,0,0,0,4.108-.551c1.714-.52,3.778-1.879,4.261-3.632a3.062,3.062,0,0,0-.819-2.989,9.682,9.682,0,0,0-7.323-3.281Z" transform="translate(-2087.098 -1178.479)" fill="#7b78a1"/>
          <g id="Group_106155-2" data-name="Group 106155" transform="translate(20.573 64.822)">
            <path id="Path_99335-2" data-name="Path 99335" d="M2202.765,1271.245c-2.58.274-5.016.532-7.433.718-.573.043-1.51.144-2.7.27-2.83.3-9.436,1.009-10.537.637a1.038,1.038,0,0,0-1.066,1.78,4.86,4.86,0,0,0,2.45.392c1.782,0,4.665-.241,9.376-.745,1.122-.12,2.089-.223,2.632-.266,2.448-.188,5.014-.46,7.495-.724,8.65-.918,17.59-1.869,25.611.138v-2.132C2220.357,1269.376,2211.418,1270.325,2202.765,1271.245Z" transform="translate(-2180.553 -1270.184)" fill="#7b78a1"/>
            <path id="Path_99336-2" data-name="Path 99336" d="M2188.28,1283.34Z" transform="translate(-2186.687 -1280.627)" fill="#7b78a1"/>
          </g>
          <path id="Path_99337-2" data-name="Path 99337" d="M2321.555,1101.327a2.811,2.811,0,0,0-2.677-.526,3.325,3.325,0,0,0-2.31,2.774,4.078,4.078,0,0,1-.417,1.132,1.038,1.038,0,1,0,1.751,1.116,5.763,5.763,0,0,0,.672-1.716c.229-.864.328-1.145.908-1.32a.755.755,0,0,1,.773.157c1.3,1.042,1.91,4.847,1.811,6.107a132.658,132.658,0,0,0-.132,13.88,119.272,119.272,0,0,1-.254,15.144l-.027.26c-.163,1.536-.332,3.127-.6,4.651a2.477,2.477,0,0,1-1.347,2.05c-.633.186-1.258-.367-1.572-.709-1.254-1.384-1.46-4.222-1.608-6.294l-.023-.3a1.038,1.038,0,1,0-2.07.153l.022.3c.171,2.374.408,5.624,2.143,7.538a3.912,3.912,0,0,0,2.85,1.427,3,3,0,0,0,.829-.118,4.37,4.37,0,0,0,2.817-3.675c.287-1.6.46-3.228.627-4.8l.029-.262a120.692,120.692,0,0,0,.264-15.412,130.62,130.62,0,0,1,.126-13.661c.118-1.506-.495-6.212-2.58-7.889Z" transform="translate(-2266.244 -1070.805)" fill="#7b78a1"/>
          <path id="Path_99338-2" data-name="Path 99338" d="M2341.374,1147.3a1.242,1.242,0,0,0-.377.268,2.734,2.734,0,0,0-2.825.522,1.963,1.963,0,0,0-.569,1.543,4.433,4.433,0,0,0,1.728,2.778,2.2,2.2,0,0,0,1.374.4c.095,0,.186,0,.266,0s.175-.006.256,0c1.856.1,2.6-.685,2.892-1.351.585-1.33-.334-2.955-1.052-3.669a1.461,1.461,0,0,0-1.691-.481Zm-.722,1.374h0Zm1.573,1.928a1.488,1.488,0,0,1-.9.126c-.134,0-.274,0-.419,0a3.452,3.452,0,0,1-.363,0,2.724,2.724,0,0,1-.868-1.2c.171-.118.5-.047,1.029.122a1.926,1.926,0,0,0,1.264.1,1.41,1.41,0,0,1,.258.856Zm.493-2.052h0l-1.035.062,1.035-.062Z" transform="translate(-2284.635 -1107.736)" fill="#7b78a1"/>
          <path id="Path_99339-2" data-name="Path 99339" d="M2342.618,1204.376c-.012,0-.025.01-.04.016a2.188,2.188,0,0,0-1.969.474,3.144,3.144,0,0,0-.67,3.071,2.91,2.91,0,0,0,2.025,2.143,3.089,3.089,0,0,0,.763.093,3.465,3.465,0,0,0,2.976-1.737,2.739,2.739,0,0,0-.495-3.393,3.031,3.031,0,0,0-2.593-.668Zm1.281,3.038a1.381,1.381,0,0,1-1.429.652.924.924,0,0,1-.53-.683,1.283,1.283,0,0,1,.07-.963h0a3.156,3.156,0,0,1,1.017.268,1.028,1.028,0,0,0,.854-.008.635.635,0,0,1,.014.736Z" transform="translate(-2286.386 -1153.057)" fill="#7b78a1"/>
          <path id="Path_99340-2" data-name="Path 99340" d="M2345.123,1258.607a2.481,2.481,0,0,0-2.727-.068h0c-.155.095-2.293,1.442-2.277,3.164a2.34,2.34,0,0,0,1.443,2.071,3.783,3.783,0,0,0,1.815.571,2.627,2.627,0,0,0,.771-.118,3.053,3.053,0,0,0,2.25-2.481,3.293,3.293,0,0,0-1.276-3.139Zm-2.209.833h0Zm1.433,1.986a1,1,0,0,1-.8.817c-.243.074-.464-.01-1-.3a.962.962,0,0,1-.349-.26c-.012-.256.637-.957,1.244-1.351.26-.142.4-.093.505-.019A1.22,1.22,0,0,1,2344.347,1261.427Z" transform="translate(-2286.637 -1195.822)" fill="#7b78a1"/>
          <path id="Path_99341-2" data-name="Path 99341" d="M2313.366,1291.057a1.012,1.012,0,0,0-.153-.184c-.8-.771-2.788-.138-3.568.656a1.854,1.854,0,0,0,.114,2.753c.078.076.155.173.237.272a3.037,3.037,0,0,0,1.545,1.157,1.773,1.773,0,0,0,.415.05,2.241,2.241,0,0,0,1.46-.608,3.7,3.7,0,0,0,1.355-2.547,1.712,1.712,0,0,0-1.4-1.551Zm-.926.78h0Zm-.757-.716Zm.293,2.528a3.893,3.893,0,0,1-.384-.421c-.109-.13-.215-.256-.316-.361a2.4,2.4,0,0,1,.452-.19,1.549,1.549,0,0,0,.808.32.026.026,0,0,1,.012,0A2.288,2.288,0,0,1,2311.976,1293.65Z" transform="translate(-2262.006 -1221.507)" fill="#7b78a1"/>
        </g>
        <g id="Group_106158-2" data-name="Group 106158" transform="translate(68.925)">
          <path id="Path_99342-2" data-name="Path 99342" d="M396.411,1561.743a1.037,1.037,0,0,0-1.417.377c-2.234,3.855-4.222,7.538-5.911,10.953-.811,1.646-2.438,5.632-3.883,8.823h2.275c1.332-3,2.739-6.42,3.471-7.9,1.668-3.372,3.634-7.016,5.845-10.832a1.036,1.036,0,0,0-.377-1.417Z" transform="translate(-374.991 -1424.808)" fill="#7b78a1"/>
          <path id="Path_99343-2" data-name="Path 99343" d="M466.012,1314.961c-2.784-2.291-7.192-.615-10.733.732-.984.375-1.914.728-2.609.907a58.06,58.06,0,0,1-9.788,1.4c-1.885.161-3.832.328-5.783.6-8.382,1.186-14.922,2.912-20.585,5.432-3.347,1.491-7.883,3.931-10.481,7.086-.058.068-.167.182-.307.328-1.4,1.462-2.143,2.43-2.087,3.345a1.385,1.385,0,0,0,.505,1,1.037,1.037,0,0,0,1.627-1.171,10.852,10.852,0,0,1,1.454-1.739c.184-.192.328-.347.4-.439,2.345-2.846,6.583-5.113,9.726-6.511,5.482-2.44,11.846-4.116,20.032-5.274,1.893-.268,3.813-.433,5.67-.592a60.435,60.435,0,0,0,10.13-1.458,29.369,29.369,0,0,0,2.828-.978c2.879-1.1,6.825-2.594,8.677-1.07.45.371.443.615.441.708-.029,1.013-2.089,2.522-3.195,3.333-.386.283-.718.526-.976.743a31.968,31.968,0,0,1-12.7,5.872c-1.072.188-5.35,1.219-6.67,2.823a1.037,1.037,0,1,0,1.6,1.318c.662-.8,3.7-1.8,5.426-2.1a33.881,33.881,0,0,0,13.672-6.323c.221-.184.524-.406.87-.66,1.683-1.233,3.987-2.923,4.042-4.95a2.906,2.906,0,0,0-1.2-2.368Z" transform="translate(-389.625 -1228.135)" fill="#7b78a1"/>
          <path id="Path_99344-2" data-name="Path 99344" d="M545.2,1301.346a5.633,5.633,0,0,0-4.824-.031,29.14,29.14,0,0,0-10.865,8.3,21.437,21.437,0,0,1-13.259,7.338,23.144,23.144,0,0,1-2.821.033,17.721,17.721,0,0,0-4.337.237,1.037,1.037,0,1,0,.456,2.023,15.833,15.833,0,0,1,3.826-.186,24.734,24.734,0,0,0,3.079-.043,23.333,23.333,0,0,0,14.66-8.085,27.151,27.151,0,0,1,10.106-7.72,3.583,3.583,0,0,1,3-.033,2.043,2.043,0,0,1,1.06,1.536c.214,1.229-.239,3.663-3.615,8.272-4.257,5.8-9.512,9.394-16.091,13-6.794,3.729-14.928,4.2-22.794,4.657a107.86,107.86,0,0,0-12.249,1.178c-.118.021-11.673,2.518-11.851,6.558a1.039,1.039,0,0,0,.992,1.083h.045a1.035,1.035,0,0,0,1.035-.992c.039-.916,4.861-3.684,10.135-4.605a106.743,106.743,0,0,1,12.011-1.149c8.095-.47,16.468-.957,23.672-4.911,6.822-3.741,12.284-7.487,16.765-13.6,3.1-4.23,4.405-7.456,3.987-9.856A4.074,4.074,0,0,0,545.2,1301.346Z" transform="translate(-449.196 -1217.784)" fill="#7b78a1"/>
          <g id="Group_106157-2" data-name="Group 106157" transform="translate(0 104.169)">
            <path id="Path_99345-2" data-name="Path 99345" d="M341.252,1478.06a15.7,15.7,0,0,0-1.668,1.7,2.152,2.152,0,0,0-.184.631Z" transform="translate(-338.637 -1462.664)" fill="#6ad7e7"/>
            <path id="Path_99346-2" data-name="Path 99346" d="M350.312,1403.419c-1.965-.45-12.172,13.478-13.663,17.085a15.88,15.88,0,0,1,1.668-1.7l-1.852,2.333a2.088,2.088,0,0,1,.184-.631,3.2,3.2,0,0,0-.926,2.343c.65,3.694,16.776,15.9,20.014,15.334,5.226-.918,7.051-7.59,9.809-11.527,1.32-1.877,3.888-5.319,4-7.68.052-1.293-1.891-2.955-2.6-3.867-4.543-5.81-9.114-9.97-16.631-11.69Z" transform="translate(-335.699 -1403.408)" fill="#a4a0c7"/>
          </g>
          <path id="Path_99347-2" data-name="Path 99347" d="M595.412,1080.031c-4.193,1.06-7.3,4.671-8.111,9.425l-.023.126c-.318,1.838-.709,4.125.142,6.033a1.038,1.038,0,0,0,1.9-.848c-.6-1.332-.262-3.273.008-4.834l.023-.128c.67-3.933,3.189-6.907,6.575-7.763,3.2-.812,6.4.464,8.769,3.492,5,6.387,2.7,15.14.858,22.171-.384,1.466-.7,2.962-1.011,4.409-.179.839-.357,1.675-.547,2.5a8.686,8.686,0,0,0-.074,2.995c.016.087.058.256.1.439.014.058.029.12.043.177a1.039,1.039,0,0,0,.087.524,1.069,1.069,0,0,0,1,.7,1.05,1.05,0,0,0,.342-.056c.92-.318.7-1.2.547-1.842-.033-.134-.064-.258-.074-.309a6.705,6.705,0,0,1,.054-2.168c.192-.835.371-1.683.553-2.532.3-1.423.617-2.9.988-4.315,1.858-7.08,4.4-16.778-1.229-23.978-2.856-3.65-6.936-5.232-10.912-4.224Z" transform="translate(-535.097 -1042.319)" fill="#7b78a1"/>
          <path id="Path_99348-2" data-name="Path 99348" d="M545.055,1166.441a34.156,34.156,0,0,1-4.657-.666,33.265,33.265,0,0,0-5.843-.747c-.551,0-1.122,0-1.71,0-5.839-.008-13.045,0-16.741-4.409-2.708-3.236-3.964-9.984-1.52-13.841a8.8,8.8,0,0,1,6.078-3.661,8.64,8.64,0,0,1,6.876,1.584,1.037,1.037,0,0,0,1.318-1.6,10.69,10.69,0,0,0-8.526-2.03,10.894,10.894,0,0,0-7.5,4.6c-3.034,4.787-1.547,12.424,1.683,16.281,4.317,5.158,12.08,5.137,18.333,5.154q.875,0,1.693,0a32.036,32.036,0,0,1,5.474.712,36.008,36.008,0,0,0,4.948.7h.047a1.038,1.038,0,0,0,.045-2.075Z" transform="translate(-474.987 -1090.872)" fill="#7b78a1"/>
          <path id="Path_99349-2" data-name="Path 99349" d="M670.692,964.508c-3.679,2.1-6.49,7.827-4.6,12.073a1.037,1.037,0,0,0,1.9-.844c-1.4-3.137.885-7.8,3.731-9.425,1.864-1.058,3.483-.644,4.816,1.235,1.755,2.477.2,5.748-1.3,8.91a24.052,24.052,0,0,0-1.611,3.95,28.932,28.932,0,0,0-1.11,6.521,1.039,1.039,0,0,0,.992,1.083h.045a1.036,1.036,0,0,0,1.035-.992,27.093,27.093,0,0,1,1.044-6.086,22.549,22.549,0,0,1,1.479-3.587c1.59-3.356,3.57-7.53,1.114-11-1.937-2.735-4.754-3.424-7.536-1.838Z" transform="translate(-597.47 -950.193)" fill="#7b78a1"/>
          <path id="Path_99350-2" data-name="Path 99350" d="M639.025,1000.341c-4.414-.2-10.671-2.99-13.5-7.317a7.541,7.541,0,0,1-.893-7.148c.553-1.435,2.735-2.739,4.669-2.786h.113a2.326,2.326,0,0,1,2.347,1.357,1.038,1.038,0,0,0,1.9-.841,4.433,4.433,0,0,0-4.409-2.59c-2.766.07-5.707,1.916-6.554,4.117a9.627,9.627,0,0,0,1.093,9.029c3.318,5.069,10.281,8.035,15.148,8.256h.047a1.038,1.038,0,0,0,.047-2.075Z" transform="translate(-562.976 -963.958)" fill="#7b78a1"/>
          <path id="Path_99351-2" data-name="Path 99351" d="M552.107,898.93c-2.073,1.291-3.547,4.632-2.419,7.173a1.038,1.038,0,0,0,1.9-.841c-.666-1.5.334-3.766,1.619-4.568a1.544,1.544,0,0,1,2.229.5c1.433,1.716.177,5.562-.656,8.105-.153.462-.291.889-.4,1.264a7.957,7.957,0,0,0-.283,4.036c.019.08.052.2.093.338l.006.019a1.04,1.04,0,0,0,.309,1.161,1.2,1.2,0,0,0,.773.3,1.088,1.088,0,0,0,.6-.179c.724-.478.481-1.3.305-1.891-.025-.08-.045-.151-.056-.2a5.938,5.938,0,0,1,.243-2.993c.107-.361.241-.769.386-1.213.973-2.98,2.446-7.482.274-10.083a3.577,3.577,0,0,0-4.919-.926Z" transform="translate(-505.245 -898.322)" fill="#7b78a1"/>
          <path id="Path_99352-2" data-name="Path 99352" d="M520.232,928.591a17.987,17.987,0,0,0-4.989-.833c-3.131-.233-6.086-.454-7.662-2.964a4.535,4.535,0,0,1-.1-4.915,4.656,4.656,0,0,1,3.952-2.409,3.393,3.393,0,0,1,2.834,2.331,1.037,1.037,0,0,0,1.9-.844,5.4,5.4,0,0,0-4.612-3.558,6.68,6.68,0,0,0-5.855,3.426,6.6,6.6,0,0,0,.132,7.074c2.135,3.4,5.923,3.681,9.264,3.931a16.4,16.4,0,0,1,4.4.7,1.021,1.021,0,0,0,.371.07,1.038,1.038,0,0,0,.373-2.007Z" transform="translate(-469.87 -911.872)" fill="#7b78a1"/>
          <path id="Path_99353-2" data-name="Path 99353" d="M486.414,1000.11a5.287,5.287,0,0,0-6.979-.031c-2.714,2.067-4.719,6.66-3.254,9.947a1.037,1.037,0,0,0,1.9-.844c-.934-2.1.338-5.719,2.615-7.452a3.287,3.287,0,0,1,4.405-.019c2.227,1.831,1.11,6.439.293,9.8-.264,1.087-.513,2.114-.629,2.949a21.168,21.168,0,0,0,0,3.826c.182,2.809.227,2.84.656,3.139l.592-.852.019-.037,1-.159a33.818,33.818,0,0,1-.212-5.626c.1-.736.34-1.714.592-2.749C488.351,1008.108,489.646,1002.771,486.414,1000.11Z" transform="translate(-446.816 -978.061)" fill="#7b78a1"/>
          <path id="Path_99354-2" data-name="Path 99354" d="M436.814,1040.068c-3.452-.3-6.711-.58-9.176-3.731a3.967,3.967,0,0,1-.2-5.047c.92-1.163,2.77-2.007,5.2-.883a7.4,7.4,0,0,1,3.265,2.78,1.038,1.038,0,1,0,1.893-.85,9.278,9.278,0,0,0-4.286-3.813c-2.9-1.341-5.919-.761-7.695,1.479a6.075,6.075,0,0,0,.2,7.614c3.019,3.863,6.891,4.2,10.632,4.521,2.945.254,5.729.495,8.081,2.432a1.037,1.037,0,1,0,1.32-1.6c-2.852-2.345-6.09-2.625-9.221-2.9Z" transform="translate(-406.235 -1001.105)" fill="#7b78a1"/>
        </g>
        <g id="Group_106159-2" data-name="Group 106159" transform="translate(345.264 9.027)">
          <path id="Path_99355-2" data-name="Path 99355" d="M1842.284,1258.9a29.818,29.818,0,0,1-2.638-5.965,31.97,31.97,0,0,1-.625-5.447c-.386-5.94-.866-13.331-6.715-14.686a3.893,3.893,0,0,0-3.444.794c-2.661,2.155-3.432,7.781-3.389,10.168a45.525,45.525,0,0,0,1.52,10.225,35.665,35.665,0,0,1,.835,10.19c-.072,4.77-.146,9.7,2.642,15.039a1.037,1.037,0,0,0,.92.557,1.065,1.065,0,0,0,.481-.117,1.04,1.04,0,0,0,.439-1.4c-2.545-4.869-2.477-9.326-2.4-14.047a37.835,37.835,0,0,0-.905-10.76,43.588,43.588,0,0,1-1.45-9.722c-.039-2.128.711-6.973,2.619-8.518a1.814,1.814,0,0,1,1.67-.384c4.345,1.006,4.752,7.27,5.113,12.8a33.063,33.063,0,0,0,.693,5.847,31.817,31.817,0,0,0,2.809,6.4c.173.328.344.65.511.969a1.038,1.038,0,1,0,1.84-.961c-.169-.324-.342-.65-.518-.982Z" transform="translate(-1794.559 -1172.76)" fill="#7b78a1"/>
          <path id="Path_99356-2" data-name="Path 99356" d="M1889.511,1094.359l-.254-.144c-1.99-1.145-3.937-2.436-5.818-3.681-1.6-1.06-3.252-2.155-4.94-3.168a19.336,19.336,0,0,0-2.477-1.184,10.607,10.607,0,0,1-3.292-1.844,1.037,1.037,0,0,0-1.442,1.491,12.268,12.268,0,0,0,3.929,2.266,17.729,17.729,0,0,1,2.215,1.052c1.65.99,3.283,2.073,4.863,3.118,1.91,1.264,3.881,2.572,5.929,3.75l.268.153c3.156,1.786,3.549,2.716,3.351,3.143-.856.978-7.8,1.109-11.529,1.182a40.966,40.966,0,0,0-7.134.448c-1.046.281-2.384,1.467-3.49,8.2a64.584,64.584,0,0,0-.87,9.135,1.037,1.037,0,0,0,1.037,1.019h.021a1.038,1.038,0,0,0,1.019-1.056c-.12-6.323,1.953-14.8,2.823-15.291a44,44,0,0,1,6.635-.377c8.388-.161,12.44-.443,13.336-2.318,1.328-2.772-2.529-4.954-4.176-5.886Z" transform="translate(-1828.967 -1054.769)" fill="#7b78a1"/>
          <path id="Path_99357-2" data-name="Path 99357" d="M1719.965,1146.137c-.949-2.5-2.023-5.327-4.57-5.915-4.368-1.011-8.081.563-11.669,2.085l-.726.307c-1.761.742-7.621,2.324-9.332,2.147.458-1.794,4.28-7.392,6.062-9.242l.208-.217c2.611-2.7,6.187-6.4,7.685-9.537a1.038,1.038,0,1,0-1.875-.893c-1.351,2.834-4.791,6.391-7.3,8.988l-.21.217c-1.161,1.2-6.973,8.739-6.676,11.248a1.488,1.488,0,0,0,.662,1.108c2.273,1.46,11.494-1.869,11.582-1.906l.732-.309c3.584-1.52,6.68-2.832,10.392-1.974,1.466.34,2.3,2.52,3.1,4.63a11.978,11.978,0,0,0,2.312,4.343,1.04,1.04,0,0,0,.722.291,1.056,1.056,0,0,0,.747-.316,1.039,1.039,0,0,0-.025-1.469A11.073,11.073,0,0,1,1719.965,1146.137Z" transform="translate(-1688.254 -1086.707)" fill="#7b78a1"/>
          <path id="Path_99358-2" data-name="Path 99358" d="M1748.133,988.79c-2.283-1.466-5,1.943-8.437,6.261-2.2,2.762-4.931,6.2-6.587,6.643-1.9.514-5.193-1.112-8.369-2.683-4.15-2.052-8.439-4.172-12.181-3.36a3.048,3.048,0,0,0-2.17,1.563c-.975,1.879.173,4.616.726,5.929a49.863,49.863,0,0,0,5.049,8.571,63.634,63.634,0,0,1,3.931,6.266,1.039,1.039,0,0,0,.922.559,1.025,1.025,0,0,0,.478-.118,1.038,1.038,0,0,0,.441-1.4,65.083,65.083,0,0,0-4.057-6.478,48.316,48.316,0,0,1-4.849-8.2c-.328-.78-1.324-3.153-.8-4.168a1,1,0,0,1,.769-.493c3.028-.66,6.987,1.3,10.817,3.193,3.683,1.823,7.163,3.545,9.829,2.828,2.316-.623,4.919-3.894,7.674-7.357,1.627-2.046,4.624-5.814,5.624-5.814a.3.3,0,0,1,.043,0c1.24,1.819-.864,16.229-1.809,18.217a1.037,1.037,0,1,0,1.873.891c.561-1.18,1.464-5.9,1.972-10.314,1.068-9.279-.305-10.159-.891-10.535Z" transform="translate(-1702.91 -978.884)" fill="#7b78a1"/>
          <path id="Path_99359-2" data-name="Path 99359" d="M1888.422,1276.266c-.105-.483-.213-.961-.32-1.44-.854-3.795-1.66-7.379-.7-11.11l.239-.922a67.044,67.044,0,0,0,2.528-14.579c.559-7.454-4.77-15.648-6.418-17.98-2.988-4.22-5.952-6.065-10.236-6.371a1.05,1.05,0,0,0-1.108.961,1.039,1.039,0,0,0,.961,1.11c3.681.262,6.037,1.751,8.687,5.5,3.186,4.515,6.447,11.253,6.045,16.629a64.852,64.852,0,0,1-2.469,14.214l-.239.924c-1.085,4.216-.186,8.215.685,12.084.107.472.214.949.318,1.425.458,2.1,3.195,12.515,5.005,19.405.524,1.992,2.871,12.886,3.927,17.7h2.124c-.99-4.5-3.5-16.155-4.044-18.228-1.807-6.874-4.537-17.264-4.985-19.319Z" transform="translate(-1831.814 -1165.751)" fill="#7b78a1"/>
          <path id="Path_99360-2" data-name="Path 99360" d="M1794.335,1242.459c-1.524.8-2.122,2.646-2.7,4.436-.417,1.293-.891,2.757-1.547,2.935-.623.165-.833-.027-.924-.109-.827-.755-.9-3.6-.5-5.909.881-5.007,2.242-8.54,6.3-10.677a1.038,1.038,0,0,0-.967-1.838c-4.789,2.522-6.412,6.684-7.373,12.154-.171.973-.916,5.919,1.141,7.8a2.72,2.72,0,0,0,1.881.72,3.761,3.761,0,0,0,.982-.138c1.749-.468,2.376-2.417,2.984-4.3.429-1.328.914-2.832,1.685-3.236a1.038,1.038,0,1,0-.961-1.84Z" transform="translate(-1763.506 -1171.556)" fill="#7b78a1"/>
          <path id="Path_99361-2" data-name="Path 99361" d="M1807.654,1325.042a1.038,1.038,0,0,0-1.384.489c-1.5,3.122-2.791,3.547-3.277,3.584a1.744,1.744,0,0,1-1.475-.908,6.462,6.462,0,0,1-.171-6.086,1.038,1.038,0,1,0-1.873-.9,8.558,8.558,0,0,0,.332,8.157,3.8,3.8,0,0,0,3.1,1.813c.083,0,.167,0,.25-.01,1.285-.1,3.193-1.006,4.989-4.758a1.037,1.037,0,0,0-.489-1.384Z" transform="translate(-1773.233 -1242.565)" fill="#7b78a1"/>
          <path id="Path_99362-2" data-name="Path 99362" d="M1822.1,1370.054c-2.32-1.107-2.619-4.385-2.64-5.744a1.049,1.049,0,0,0-1.054-1.021,1.036,1.036,0,0,0-1.021,1.054c.056,3.688,1.45,6.451,3.822,7.583a1.049,1.049,0,0,0,.448.1,1.037,1.037,0,0,0,.448-1.974Z" transform="translate(-1788.143 -1276.422)" fill="#7b78a1"/>
          <path id="Path_99363-2" data-name="Path 99363" d="M1849.423,1448.354a1.038,1.038,0,1,0-1.84.961c1.732,3.32,2.489,18.054,2.9,25.97.128,2.473.219,10.531.3,16.279h2.054c-.087-5.863-.182-14.36-.287-16.386-.6-11.69-1.337-23.388-3.129-26.822Z" transform="translate(-1812.016 -1343.5)" fill="#7b78a1"/>
          <path id="Path_99364-2" data-name="Path 99364" d="M1822.889,942.1a1.05,1.05,0,0,0-1.155.907c-.153,1.277-.2,2.58-.256,3.84s-.1,2.44-.237,3.589a1.039,1.039,0,0,0,.905,1.155.863.863,0,0,0,.126.008,1.039,1.039,0,0,0,1.029-.914c.148-1.231.2-2.514.25-3.756.05-1.219.1-2.479.243-3.675a1.04,1.04,0,0,0-.907-1.155Z" transform="translate(-1791.195 -942.093)" fill="#7b78a1"/>
          <path id="Path_99365-2" data-name="Path 99365" d="M1785.749,947.965q-.337-1.108-.683-2.213a1.038,1.038,0,1,0-1.98.623c.231.73.454,1.462.679,2.194.524,1.714,1.064,3.485,1.687,5.212a1.037,1.037,0,1,0,1.951-.7c-.6-1.679-1.138-3.426-1.654-5.115Z" transform="translate(-1760.877 -944.42)" fill="#7b78a1"/>
          <path id="Path_99366-2" data-name="Path 99366" d="M1950.959,1015.74a1.038,1.038,0,0,0-1.437.295,13.937,13.937,0,0,1-2.652,2.727,21.066,21.066,0,0,0-2.331,2.225,1.038,1.038,0,0,0,1.578,1.349,19.207,19.207,0,0,1,2.108-2,15.658,15.658,0,0,0,3.032-3.158,1.037,1.037,0,0,0-.295-1.437Z" transform="translate(-1888.871 -1000.414)" fill="#7b78a1"/>
          <path id="Path_99367-2" data-name="Path 99367" d="M1965.374,1054.243c-.419.115-.827.264-1.221.406a5.454,5.454,0,0,1-2.337.5,1.038,1.038,0,1,0-.25,2.06,4.253,4.253,0,0,0,.511.031,8.221,8.221,0,0,0,2.78-.641c.373-.136.726-.262,1.068-.357a1.038,1.038,0,1,0-.553-2Z" transform="translate(-1901.861 -1031.084)" fill="#7b78a1"/>
          <path id="Path_99368-2" data-name="Path 99368" d="M1683.131,1120.793a9.833,9.833,0,0,0-4.884-1.167c-.53-.033-1.031-.064-1.5-.122a1.038,1.038,0,1,0-.25,2.06c.53.064,1.085.1,1.621.132a8.255,8.255,0,0,1,3.865.825,1.036,1.036,0,1,0,1.145-1.728Z" transform="translate(-1675.584 -1082.91)" fill="#7b78a1"/>
          <path id="Path_99369-2" data-name="Path 99369" d="M1946.345,1207.139a1.037,1.037,0,1,0-1.145,1.73,8.434,8.434,0,0,1,2.673,3,1.038,1.038,0,0,0,1.852-.936A10.526,10.526,0,0,0,1946.345,1207.139Z" transform="translate(-1889.225 -1152.34)" fill="#7b78a1"/>
          <path id="Path_99370-2" data-name="Path 99370" d="M1748.107,1251.184a1.035,1.035,0,0,0-1.437.293,24.9,24.9,0,0,0-2.007,3.97c-.248.571-.493,1.143-.759,1.7a1.037,1.037,0,1,0,1.875.889c.276-.582.532-1.176.788-1.77a22.987,22.987,0,0,1,1.831-3.646,1.035,1.035,0,0,0-.293-1.437Z" transform="translate(-1729.734 -1187.299)" fill="#7b78a1"/>
          <path id="Path_99371-2" data-name="Path 99371" d="M1781.73,1062.455l-.757-.357a36.072,36.072,0,0,1-4.636-2.452,1.037,1.037,0,1,0-1.145,1.73,37.989,37.989,0,0,0,4.9,2.6l.753.355a1.037,1.037,0,1,0,.887-1.875Z" transform="translate(-1754.28 -1035.265)" fill="#7b78a1"/>
        </g>
      </g>
    </g>
  </g>
</svg>
