<svg xmlns="http://www.w3.org/2000/svg" width="24" height="24.032" viewBox="0 0 24 24.032">
  <path id="icons8-star-trek" d="M27,16.134c0-3.336-3.1-6.363-7.733-7.563a32.24,32.24,0,0,0-3.389-5.3A.4.4,0,0,0,15.447,3a.388.388,0,0,0-.408.24,26.687,26.687,0,0,0-3.356,5.153C6.564,9.362,3,12.531,3,16.134c0,2.559,1.757,4.911,4.83,6.477-.152,1.211-.256,2.509-.368,3.968a.46.46,0,0,0,.454.454h.112a.36.36,0,0,0,.394-.225c.721-.947,1.577-2.049,2.493-3.093A17.04,17.04,0,0,0,15,24.184a16.1,16.1,0,0,0,6.369-1.268c.343.513.666,1.056,1,1.628l.272.456c.035.154.169.3.555.3a.464.464,0,0,0,.451-.483c-.105-1-.209-1.948-.315-2.895C25.668,20.446,27,18.344,27,16.134Zm-6.73-5.485c3.085,1.184,5.042,3.292,5.042,5.485a5.218,5.218,0,0,1-2.3,3.959,42.776,42.776,0,0,0-1.662-6.618C21.044,12.546,20.688,11.617,20.271,10.649Zm-3.173,7.8a2.264,2.264,0,0,1,.725-.3c.01,0,.108.042.346.328.459.655.93,1.284,1.429,1.95.28.374.567.756.86,1.155A16.4,16.4,0,0,1,15,22.551a15.5,15.5,0,0,1-2.729-.228,21.747,21.747,0,0,1,4.587-3.754Zm-6.33-8.136a33.652,33.652,0,0,0-1.342,3.961,51.662,51.662,0,0,0-1.348,6.505c-2.131-1.15-3.389-2.865-3.389-4.643C4.688,13.691,7.108,11.4,10.768,10.311Z" transform="translate(-3.001 -3.001)" fill="#fff"/>
</svg>
