<svg xmlns="http://www.w3.org/2000/svg" width="160" height="29.039" viewBox="0 0 160 29.039">
  <g id="Group_4989" data-name="Group 4989" transform="translate(-24 -58.581)">
    <text id="Atomic_Signals" data-name="Atomic Signals" transform="translate(61 79)" fill="#665cd7" font-size="16" font-family="Poppins-SemiBold, Poppins" font-weight="600"><tspan x="0" y="0">Atomic Signals</tspan></text>
    <path id="icons8-star-trek" d="M32,18.87c0-4.031-3.749-7.689-9.344-9.139a38.956,38.956,0,0,0-4.095-6.4A.486.486,0,0,0,18.04,3a.469.469,0,0,0-.493.29,32.246,32.246,0,0,0-4.055,6.227C7.306,10.688,3,14.516,3,18.87,3,21.963,5.124,24.8,8.837,26.7c-.183,1.464-.309,3.032-.444,4.795a.556.556,0,0,0,.548.548h.135a.434.434,0,0,0,.476-.272c.871-1.144,1.905-2.476,3.013-3.737A20.59,20.59,0,0,0,17.5,28.6a19.46,19.46,0,0,0,7.7-1.532c.415.62.8,1.276,1.214,1.967l.328.551c.042.186.2.365.671.365a.561.561,0,0,0,.545-.584c-.127-1.207-.253-2.354-.381-3.5C30.391,24.08,32,21.541,32,18.87Zm-8.132-6.628c3.727,1.431,6.092,3.977,6.092,6.628a6.306,6.306,0,0,1-2.778,4.783,51.688,51.688,0,0,0-2.008-8C24.8,14.535,24.373,13.412,23.869,12.243Zm-3.834,9.423a2.736,2.736,0,0,1,.876-.36c.012,0,.131.051.418.4.554.792,1.124,1.552,1.727,2.356.339.452.685.914,1.039,1.4A19.816,19.816,0,0,1,17.5,26.624a18.728,18.728,0,0,1-3.3-.276,26.278,26.278,0,0,1,5.542-4.536Zm-7.649-9.831a40.663,40.663,0,0,0-1.622,4.787,62.425,62.425,0,0,0-1.629,7.861c-2.574-1.39-4.1-3.462-4.1-5.61C5.04,15.919,7.963,13.146,12.386,11.834Z" transform="translate(20.999 55.58)" fill="#665cd7"/>
  </g>
</svg>
